<?xml version="1.0" encoding="utf-8"?>
<!-- Generator: Adobe Illustrator 25.2.3, SVG Export Plug-In . SVG Version: 6.00 Build 0)  -->
<svg version="1.1" id="レイヤー_1" xmlns="http://www.w3.org/2000/svg" xmlns:xlink="http://www.w3.org/1999/xlink" x="0px"
	 y="0px" viewBox="0 0 308 168" style="enable-background:new 0 0 308 168;" xml:space="preserve">
<style type="text/css">
	.st0{fill:#A8A8D0;}
	.st1{fill:#6868AF;}
</style>
<rect x="4.5" y="3.5" class="st0" width="300" height="160"/>
<path class="st1" d="M213.9,121H209l-46.9-64.5l10.4-14.3c1.2-1.4,0.8-3.3-0.6-4.5l-5.1-3.5c-1.4-1.2-3.3-0.8-4.3,0.6l-8,11.1
	l-8.2-11.1c-1-1.4-2.9-1.8-4.3-0.6l-5.1,3.5c-1.4,1.2-1.8,3.1-0.6,4.5l10.4,14.3L99.8,121h-4.7c-1.8,0-3.1,1.6-3.1,3.1v6.2
	c0,1.8,1.4,3.1,3.1,3.1h118.8c1.6,0,3.1-1.4,3.1-3.1v-6.2C217,122.5,215.4,121,213.9,121z M154.5,89.7l22.7,31.2h-45.5L154.5,89.7z"
	/>
</svg>
