<?xml version="1.0" encoding="utf-8"?>
<!-- Generator: Adobe Illustrator 25.4.1, SVG Export Plug-In . SVG Version: 6.00 Build 0)  -->
<svg version="1.1" id="_x32_" xmlns="http://www.w3.org/2000/svg" xmlns:xlink="http://www.w3.org/1999/xlink" x="0px" y="0px"
	 viewBox="0 0 512 512" style="enable-background:new 0 0 512 512;" xml:space="preserve">
<style type="text/css">
	.st0{fill:#ACACAC;}
</style>
<g>
	<path class="st0" d="M138.3,313.2c-28.5,0-51.7,23.2-51.7,51.7s23.2,51.7,51.7,51.7s51.7-23.2,51.7-51.7
		C190,336.4,166.9,313.2,138.3,313.2z"/>
	<path class="st0" d="M369,313.2c-28.5,0-51.7,23.2-51.7,51.7s23.2,51.7,51.7,51.7s51.7-23.2,51.7-51.7
		C420.8,336.4,397.5,313.2,369,313.2z"/>
	<path class="st0" d="M462.7,220.2l-82-15.9l-75.3-73.1c-15.1-11.4-33.5-17.6-52.4-17.6H74.3c-21.3,0-38.5,17.2-38.5,38.5V338
		c0,10.6,8.6,19.3,19.3,19.3h15.2c3.8-34.2,32.9-61,68.1-61s64.3,26.7,68.1,61h75.7h18.7c3.8-34.2,32.9-61,68.2-61
		c35.2,0,64.3,26.7,68.1,61h29.6c10.6,0,19.3-8.6,19.3-19.3v-89.4C486.1,234.8,476.2,222.9,462.7,220.2z"/>
</g>
</svg>
