<?xml version="1.0" encoding="utf-8"?>
<!-- Generator: Adobe Illustrator 25.4.1, SVG Export Plug-In . SVG Version: 6.00 Build 0)  -->
<svg version="1.1" id="レイヤー_1" xmlns="http://www.w3.org/2000/svg" xmlns:xlink="http://www.w3.org/1999/xlink" x="0px"
	 y="0px" viewBox="0 0 150 150" style="enable-background:new 0 0 150 150;" xml:space="preserve">
<style type="text/css">
	.st0{fill:#FFFFFF;}
	.st1{fill:none;stroke:#6868AF;stroke-width:3.5;stroke-linecap:round;stroke-linejoin:round;stroke-miterlimit:10;}
</style>
<path class="st0" d="M43.2,109.1c-7.5-2.9-12.1-6.6-14.3-14.6c-1.9-7-2.9-14.3-3-21.5c-0.1-6.2-0.4-14.7,2-20.6
	c4.1-9.7,17.2-17.2,26.7-20.2c13.6-4.5,28.4-3.6,42.2-0.5c8.1,1.9,16.1,5.4,21.4,11.8c5,6.1,6.8,14.2,7.8,22
	c0.9,6.7,1.3,13.5,0,20.1s-4.5,13.1-9.8,17.2c-3.7,2.9-8.2,4.5-12.6,6.2c-10.2,3.8-21,7.6-32.1,7.4c-5.2-0.1-8.9-1.5-13.3-3.5
	C53.4,110.7,48.2,111,43.2,109.1z"/>
<path class="st0" d="M36.4,104.7c-1.5-0.7-3.1-1.6-4.2-2.9c-1.3-1.5-1.8-3.5-2.4-5.4c-2.6-9.5-5.3-19.1-5.7-28.9
	C23.9,61.8,24.4,56,27,50.9c4.8-9.5,13.2-18,23.1-21.9c8.9-3.6,18.9-2.9,28.5-2c13.6,1.3,27.5,4.6,38.7,12.8
	c3.4,2.5,6.6,5.6,8.2,9.5c1.3,3.3,1.5,6.9,1.6,10.4c0.6,16.1,2.4,47.1-20.6,48.7c-1.1-1.4-0.4-3.5,0.9-4.7
	c6.2-5.7,15.4-12.3,10.8-22.9c-0.6-1.4-2.1-2-3.5-2.5C104.9,74.8,94.4,73,85.2,68c-6.5-3.5-12.5-8.6-19.9-9
	c-8-0.4-15.1,4.9-20.2,11.1c-4.8,5.8-8.5,12.5-10.9,19.6c-1,2.9-1.6,6.6,0.5,8.8c2.4,2.6,8.1,2,9.6,5.5
	C46.7,109.6,38.6,105.7,36.4,104.7z"/>
<path class="st1" d="M39.4,88c1.2,11.2,7.9,21.5,17.2,26.2c4.1,2.1,8.5,3.1,12.9,3.6c10,1.2,20.5,0,29.1-5.7s14-15.3,13-26.4"/>
<path class="st1" d="M117.9,85.8c-2-10.1-8.2-12-18.7-12.1c-9.2-0.1-21.8-8.2-29.3-14.2c-5.2-4.1-11.3,0-15.5,3.5
	c-4.4,3.8-10.8,8.3-14.1,13c-3.9,5.3-5.2,10.5-6.3,17"/>
<path class="st1" d="M74.8,24c8.9,0.3,17.4,3.1,25.7,6.5c3.9,1.6,8.3,4.4,11.6,6.9c13.7,10.6,14.7,28,12.6,43.6
	c-1.6,11.7-6.5,19.5-9,23.6c-1.4-0.1-6.3,1.7-6.6,3.1c-0.3,1.4-6.6,3.3-9.1,4.2"/>
<path class="st1" d="M51.2,111.5c-1.1,1.1-3.4-0.5-4.3-0.5c-1.6,0.8-4.7-0.4-5.6-0.7c-3.1-1.5-7.2-3.8-8.1-6.6
	c-4.6-14.6-12.7-9.6-10-43.2c1.1-14,15.8-28,28.6-33.1c5.2-2,11.4-3.5,17-3.3"/>
<path class="st1" d="M33.5,93.7c-0.3,1.8,0.4,3.8,1.8,5c1.4,1.2,3.5,1.6,5.2,1"/>
<path class="st1" d="M65,107.9c7.1,1.9,14.7,1.8,21.8-0.3"/>
<path class="st1" d="M49.8,82.2c0.1,1.3,2.3,2.8,3.4,3.4c1.1,0.6,2.5,0.9,3.8,1.1c2.4,0.3,4.8,0.6,7.1,0.1c2.3-0.5,4.6-1.8,5.7-3.9"
	/>
<path class="st1" d="M84.9,82.9c0.5,2.2,2.8,3.3,5,3.7c4.2,0.9,9.1,0.5,12-2.8"/>
<path class="st1" d="M111.5,85.4c-0.2-1.2,2.5-2.3,3.7-2.2s2.2,1,2.6,2.1s0.3,2.4,0,3.5c-0.8,3.3-1.5,6-4.5,7.6"/>
</svg>
