<?xml version="1.0" encoding="utf-8"?>
<!-- Generator: Adobe Illustrator 25.4.1, SVG Export Plug-In . SVG Version: 6.00 Build 0)  -->
<svg version="1.1" id="レイヤー_1" xmlns="http://www.w3.org/2000/svg" xmlns:xlink="http://www.w3.org/1999/xlink" x="0px"
	 y="0px" viewBox="0 0 600 80" style="enable-background:new 0 0 600 80;" xml:space="preserve">
<style type="text/css">
	.st0{fill:#6363A5;}
	.st1{fill:none;stroke:#6363A5;stroke-width:1.4093;stroke-miterlimit:10;}
</style>
<g id="レイヤー_1_00000126303244033319284240000005728423823908637868_">
</g>
<g id="_x32_">
	<g>
		<path class="st0" d="M412.4,40.7c-0.4,0.1-0.6,0.1-1.1,0c-0.7-0.1-1.7-0.4-1.9-0.5c-0.6-0.2-1.2-0.8-1.7-1.6
			c-0.4-0.5-0.7-1.5-0.8-2.1c-0.1-0.4-0.1-0.6,0-1c0.4-3,1.7-5.8,3.4-8.4c0.4-0.6,1.3-1.5,2.7-1.8c0.8-0.1,1.2-0.1,1.7,0
			c0.4,0.1,1,0.5,1.2,1.5c0.1,0.7-0.1,1.3-0.4,2.1c-0.2,0.6-0.4,1-0.7,1.5c-1.5,2.5-3.3,5.3-5.5,7c-0.1,0.1-0.1,0.2-0.1,0.4
			c0.1,0.5,0.6,1,1,1.1c0.4,0.1,0.6,0.1,1,0.1c0.5-0.1,1-0.4,2.1-1.2c1.7-1.3,2.7-3.2,4-4.4c0.4-0.4,0.4-0.4,0.5-0.4
			c0.2,0,0.6,0.2,0.7,0.5c0,0.4,0,0.4,0,0.4s0.1,0.4-0.1,0.4c-1.2,1.3-1.5,2.9-5.2,5.9C413,40.5,412.9,40.5,412.4,40.7z M413.8,27.2
			c0-0.2-0.1-0.4-0.2-0.4c-0.2,0-0.4,0.2-0.6,0.4c-0.4,0.4-0.4,0.2-0.5,0.5c-1.5,1.9-3,4.6-3.3,7.2c0,0.1,0.1,0.1,0.1,0.1
			c0.1,0,0.1-0.1,0.2-0.1c1.5-1.5,2.5-3.4,3.5-5.1c0.4-0.6,0.2-0.7,0.5-1.2C413.6,28.2,413.9,27.8,413.8,27.2z"/>
		<path class="st0" d="M419.5,26.1c0.2-0.4,0.1-0.4,0.4-0.7c0.2-0.2,0.5-0.4,1-0.5c0.7-0.1,1.1,0,1.2,0.2c0.1,0.1,0.2,0.4,0.2,0.5
			c0.1,0.4,0,1-0.4,1.5c-0.4,0.4-1,1.5-1.3,2.8c-0.4,0.8-0.7,2.2-1.2,4.7c-0.1,0.6-0.2,1.9-0.2,2.1s0.1,0.4,0.1,0.4
			c0.2,0,0.4-0.1,0.4-0.5c2.8-5.9,4.6-7.5,5-9c0.4-1.2,0.4-1.2,0.8-1.3c0.4-0.1,0.6,0.2,1.1,0.1c0.4,0,0.7,0.4,0.7,0.7
			c0,0.1,0,0.5-0.2,0.8c-0.7,1.8-1.1,3-1.2,4.4c-0.1,0.6,0,2.1,0.1,2.7c0.1,0.5,0.4,1,0.5,1.2c0.2,0.5,1,0.7,1.2,1
			c0.4,0.1,0.5,0.4,0.6,0.6c0,0.2-0.1,0.7-0.6,0.8c-0.2,0-1.2,0.1-1.5-0.1c-0.5-0.4-0.8-0.4-1.2-0.8c-0.4-0.4-0.7-1-0.8-1.6
			c-0.4-1.6-0.1-2.1-0.2-2.2c0-0.1,0-0.1-0.1-0.1c-0.1,0-0.1,0-0.2,0.1c-1,1.7-1.5,2.8-1.9,3.8c-0.4,1-0.7,1-1,1.5
			c-0.2,0.4-0.7,0.5-1,0.5c-0.4,0.1-1.8-0.5-2.2-1c-0.1-0.1-0.4-0.5-0.4-0.8c-0.2-1,0.1-1.1,0-1.7c0-1,0.4-2.9,0.7-4
			C418.3,29.5,418.7,28,419.5,26.1z"/>
		<path class="st0" d="M433.2,24.1c0,0.1-0.1,0.5-0.1,0.6c-0.6,2.1-1,3.6-1.3,6.1c0,0.2-0.1,0.4,0,0.5c0,0.1,0,0.1,0.1,0.1
			s0.2-0.1,0.4-0.4c0.7-1,1.8-2.1,2.4-2.7c0.4-0.4,0.6-0.5,0.8-0.5c0.4-0.1,0.5-0.1,0.6,0.4c0.2,1-0.4,1.1-1,1.9
			c-1.6,2.1-2.9,4.5-3.9,6.9c-0.4,0.7-0.6,1.3-0.7,1.8c-0.6,3.2-1,5.7-1.5,8.6c-0.1,0.4-0.4,1.2-1.1,1.2c-0.1,0-0.4-0.1-0.7-0.1
			c-0.8-0.1-1-1-1-1.1c0-0.4,0-0.6,0-0.7c0.7-3.8,2.3-7.3,2.7-11c0.1-0.5,0.1-1,0.4-1.9c0.5-3,1.2-6.1,1.5-9.1
			c0-0.4,0.2-0.6,0.4-0.8c0.1-0.1,0.4-0.4,0.4-0.4c0.4-0.1,0.4-0.1,0.7-0.2c0.4-0.1,0.7,0,1,0.1C433,23.8,433.2,23.9,433.2,24.1z
			 M434.7,19.2c0,0.4-0.4,0.6-0.7,0.6c-0.4,0-1.1,0.1-1.7-0.6c-0.1-0.2-0.2-0.4-0.4-0.7c0-0.2-0.1-0.5-0.2-0.6c0-0.1,0-0.1,0.1-0.4
			c0.4-0.5,0.7-1,1.3-1.1c0.5-0.1,0.8-0.1,1.5,0.4c0.6,0.4,0.6,0.4,0.6,0.6C435.3,18.2,434.7,18.6,434.7,19.2z"/>
		<path class="st0" d="M443.8,22.8c1.2-0.2,1.7-0.4,2.4-0.5c1-0.2,1.7,0,1.8,0.4s-0.6,0.6-0.7,0.8c0,0.1-0.1,0.2-0.4,0.2
			c-0.6,0.2-1.2,0.6-2.1,1c-0.6,0.2-1,0.4-1.1,0.4c-0.2,0-0.4,0.1-0.4,0.4c-0.2,3.2-0.7,5.8-2.1,8.1c-0.6,1-1.2,1.9-2.2,2.1
			c-0.4,0-0.5,0-0.7,0c-1.2-0.4-2.1-0.8-2.4-1.3c-0.5-0.7-0.7-1.5-1-2.2c-0.4-2.3,0.4-4.5,1.2-6.7c0.4-0.7,0.4-0.5,0.5-1
			c0.7-1.5,1.5-2.9,2.8-3.3c0.5-0.1,1.1-0.1,1.5,0.4c0.4,0.2,0.4,0.2,0.5,0.4C442.4,22.2,442.9,22.9,443.8,22.8z M440.7,23.2
			c-0.1-0.4-0.4-0.5-0.4-0.4c-0.1,0-0.4,0.2-0.4,0.4c-0.1,0.2-0.4,0.4-0.5,0.6c-0.7,1.2-2.7,5.2-2.1,8.4c0,0.1,0,0.2,0.2,0.4
			c0.1,0.2,0.6,0.7,1,0.8c0.1,0,0.2,0,0.4,0c0.4-0.1,0.4-0.2,0.5-0.4c0.2-0.1,0.2-0.2,0.4-0.6c1.2-2.7,2.2-5.2,1.7-8
			c0-0.1-0.1-0.5-0.1-0.6c-0.1-0.2-0.1-0.2-0.2-0.4C440.8,23.5,440.7,23.3,440.7,23.2z"/>
		<path class="st0" d="M449.7,21.4c-0.4,1-0.4,0.8-0.5,1.2c-0.6,2.2-0.6,3.6-1,5.9c-0.1,0.4-0.1,0.6-0.1,1s0,0.7,0,1
			c0.1,0.4,0.1,0.5,0.2,0.4c0.2,0,0.4-0.1,0.6-0.4c0.5-0.4,1.1-1,1.8-2.2c0.2-0.4,0.5-0.7,1-1.2c0.7-1.2,1.8-2.3,2.5-6.1
			c0-0.2,0.4-1,0.6-1c0.4-0.1,0.5,0.1,1,0c1-0.2,1.1,0.4,1.2,0.8c0.1,0.5-0.2,1.1-0.4,1.5l-0.4,1c-0.5,1.2-1,2.5-1.1,3.8
			c-0.1,0.7-0.7,3.8-0.8,4.4c-0.1,1-0.2,1.1-0.1,1.2c0,0.1,0.1,0,0.1,0s0.2-0.1,0.4-0.1c0.2,0,0.5,0,0.6,0.2c0.1,0.4,0,0.6,0,0.8
			c-1.5,2.9-1.8,5.7-1.9,8.4c0,1.2,0.4,2.8-1.2,3.3c-0.2,0.1-0.4,0.2-0.8,0.4c-0.4,0.1-1.1,0.1-1.2-1c-0.1-0.5,0-1.3,0.2-2.3
			c0.4-1.5,1-3.5,1.5-5.2c0-0.5,0.4-3.5,0.7-5.8c0.2-1.5,0.2-1.7,0.2-1.8s0-0.1-0.1-0.1c-0.1,0-0.2,0.1-0.4,0.4
			c-0.8,1.2-2.4,2.7-2.7,2.7c-1.2,0.2-2.1,0-2.8-0.6c-0.2-0.1-0.2-0.2-0.4-0.7c-0.7-3.8,0.6-6.8,1-10.6c0.1-0.6,0.6-1,1-1
			c0.1,0,0.5,0,0.8,0c0.4-0.1,0.8,0.1,1,0.5C449.7,20.6,449.7,20.9,449.7,21.4z"/>
		<path class="st0" d="M464.6,28.6c0.1,0.4,0.1,0.5,0,1.1c-0.1,0.6-0.4,1.2-0.7,1.2c-0.2,0-0.4,0.1-1.1,0.2
			c-0.5,0.1-1.1-1.1-1.2-1.5c-0.1-0.4,0-0.5,0.1-1c0.1-0.2,0-0.7,0.5-0.8c0.8-0.1,1.2,0.4,1.9,0.4C464.5,28.3,464.6,28.5,464.6,28.6
			z M466.2,13c0.2,1.1-0.4,1.9-0.4,2.8c-0.4,3.3-0.5,6.1-1.2,9.2c-0.1,0.4-0.1,0.4-0.4,0.4c-0.4,0.1-0.6-0.1-0.7-0.2
			c-0.4-0.7-1-0.7-1-1.1c0-0.2-0.1-0.4,0-0.5c0.1-0.6,0.1-0.8,0.1-1.2c0.1-2.8,0.6-5.1,0.5-7.9c0-1-0.1-2.3,0.8-2.4
			c0.2,0,0.4,0.1,0.7,0.1c0.4,0,0.5,0.4,0.7,0.4C465.7,12.6,466.1,12.7,466.2,13z"/>
	</g>
	<g>
		<g>
			<path class="st1" d="M507.5,66.6c-2.4,0-4.5-1.9-4.5-4.5c0-2.4,1.9-4.5,4.5-4.5c2.4,0,4.5,1.9,4.5,4.5S509.9,66.6,507.5,66.6z"/>
			<path class="st1" d="M546.6,66.6c-2.4,0-4.5-1.9-4.5-4.5c0-2.4,1.9-4.5,4.5-4.5c2.4,0,4.5,1.9,4.5,4.5S549.1,66.6,546.6,66.6z"/>
		</g>
		<g>
			<path class="st1" d="M485.9,32.9H482c-1.2,0-2.2,1-2.2,2.2v16.4c0,1.2,1,2.2,2.2,2.2h3.9c1.2,0,2.2-1,2.2-2.2V35
				C487.9,33.9,487,32.9,485.9,32.9z"/>
			<path class="st1" d="M562.5,37.7l-13.8-2.7l-12.7-9.7c-2.5-1.9-5.7-3-8.9-3h-5.3v-2.9h2.1c1.5,0,2.8-1.2,2.8-2.8v-5.2
				c0-1.5-1.2-2.8-2.8-2.8H498c-1.5,0-2.8,1.2-2.8,2.8v5.2c0,1.5,1.2,2.8,2.8,2.8h1.8v2.9h-3.3c-3.5,0-6.6,2.9-6.6,6.6v28.8
				c0,1.8,1.5,3.3,3.3,3.3h2.5c0.7-5.8,5.6-10.3,11.5-10.3s10.8,4.5,11.5,10.3h12.7h3.2c0.7-5.8,5.6-10.3,11.5-10.3
				c5.9,0,10.8,4.5,11.5,10.3h5.1c1.8,0,3.3-1.5,3.3-3.3V42.5C566.4,40.2,564.8,38.1,562.5,37.7z M514.7,36.2h-20.3l0,0
				c-0.5,0-0.8-0.4-0.8-0.8v-6.4c0-1.7,1.3-3.2,3.2-3.2h18L514.7,36.2L514.7,36.2z M504.1,22.3v-2.9h13.4v2.9H504.1z M533.5,43.7
				h-4.6c-0.4,0-0.6-0.2-0.6-0.6s0.2-0.6,0.6-0.6h4.6c0.4,0,0.6,0.2,0.6,0.6C534.1,43.5,533.8,43.7,533.5,43.7z M543.2,36.2h-25.7
				V25.7h9.6c2.4,0,4.9,0.8,6.8,2.3l9.7,7.4c0.1,0.1,0.2,0.4,0.1,0.5C543.6,36,543.3,36.2,543.2,36.2z"/>
		</g>
		<path class="st1" d="M589.4,70.5h-36.8h-1c2.8-1.7,4.5-4.7,4.5-8.1c0-5.5-4.4-9.7-9.7-9.7c-5.5,0-9.7,4.4-9.7,9.7
			c0,3.4,1.7,6.3,4.2,8.1l0.2,0.2h-28.2h-0.5c2.8-1.7,4.5-4.7,4.5-8.1c0-5.5-4.4-9.7-9.7-9.7c-5.5,0-9.7,4.4-9.7,9.7
			c0,3.4,1.7,6.3,4.2,8.1V71L14,68.8"/>
	</g>
</g>
</svg>
