<?xml version="1.0" encoding="utf-8"?>
<!-- Generator: Adobe Illustrator 25.4.1, SVG Export Plug-In . SVG Version: 6.00 Build 0)  -->
<svg version="1.1" id="レイヤー_1" xmlns="http://www.w3.org/2000/svg" xmlns:xlink="http://www.w3.org/1999/xlink" x="0px"
	 y="0px" viewBox="0 0 1220 80" style="enable-background:new 0 0 1220 80;" xml:space="preserve">
<style type="text/css">
	.st0{fill:#6363A5;}
	.st1{fill:none;stroke:#6363A5;stroke-width:1.2215;stroke-miterlimit:10;}
</style>
<g id="レイヤー_1_00000126303244033319284240000005728423823908637868_">
</g>
<g id="_x32_">
	<g>
		<path class="st0" d="M1061.6,38.6c-0.3,0.1-0.5,0.1-0.9,0c-0.6-0.1-1.5-0.3-1.7-0.4c-0.5-0.2-1.1-0.7-1.5-1.4
			c-0.3-0.4-0.6-1.3-0.7-1.8c-0.1-0.3-0.1-0.5,0-0.8c0.3-2.6,1.5-5,2.9-7.3c0.3-0.5,1.2-1.3,2.3-1.6c0.7-0.1,1-0.1,1.5,0
			c0.3,0.1,0.8,0.4,1,1.3c0.1,0.6-0.1,1.2-0.3,1.8c-0.2,0.5-0.3,0.8-0.6,1.3c-1.3,2.2-2.8,4.6-4.7,6.1c-0.1,0.1-0.1,0.2-0.1,0.3
			c0.1,0.4,0.5,0.8,0.8,0.9c0.3,0.1,0.5,0.1,0.8,0.1c0.4-0.1,0.8-0.3,1.8-1c1.5-1.2,2.3-2.7,3.5-3.8c0.3-0.3,0.3-0.3,0.4-0.3
			c0.2,0,0.5,0.2,0.6,0.4c0,0.3,0,0.3,0,0.3s0.1,0.3-0.1,0.3c-1,1.2-1.3,2.5-4.5,5.2C1062.1,38.5,1062,38.5,1061.6,38.6z M1062.7,27
			c0-0.2-0.1-0.3-0.2-0.3c-0.2,0-0.3,0.2-0.5,0.3c-0.3,0.3-0.3,0.2-0.4,0.4c-1.3,1.7-2.6,4-2.8,6.2c0,0.1,0.1,0.1,0.1,0.1
			c0.1,0,0.1-0.1,0.2-0.1c1.3-1.3,2.2-2.9,3-4.4c0.3-0.5,0.2-0.6,0.4-1.1C1062.6,27.8,1062.8,27.5,1062.7,27z"/>
		<path class="st0" d="M1067.7,26c0.2-0.3,0.1-0.3,0.3-0.6c0.2-0.2,0.4-0.3,0.8-0.4c0.6-0.1,0.9,0,1,0.2c0.1,0.1,0.2,0.3,0.2,0.4
			c0.1,0.3,0,0.8-0.3,1.3c-0.3,0.3-0.8,1.3-1.2,2.4c-0.3,0.7-0.6,1.9-1,4.1c-0.1,0.5-0.2,1.7-0.2,1.8s0.1,0.3,0.1,0.3
			c0.2,0,0.3-0.1,0.3-0.4c2.4-5.2,4-6.5,4.3-7.8c0.3-1,0.3-1.1,0.7-1.2c0.3-0.1,0.5,0.2,0.9,0.1c0.3,0,0.6,0.3,0.6,0.6
			c0,0.1,0,0.4-0.2,0.7c-0.6,1.6-0.9,2.6-1,3.8c-0.1,0.5,0,1.8,0.1,2.3c0.1,0.4,0.3,0.8,0.4,1c0.2,0.4,0.8,0.6,1,0.8
			c0.3,0.1,0.4,0.3,0.5,0.5c0,0.2-0.1,0.6-0.5,0.7c-0.2,0-1,0.1-1.3-0.1c-0.4-0.3-0.7-0.3-1.1-0.7c-0.3-0.3-0.6-0.8-0.7-1.4
			c-0.3-1.4-0.1-1.8-0.2-1.9c0-0.1,0-0.1-0.1-0.1s-0.1,0-0.2,0.1c-0.8,1.5-1.3,2.4-1.7,3.3c-0.3,0.8-0.6,0.8-0.8,1.3
			c-0.2,0.3-0.6,0.4-0.8,0.4c-0.3,0.1-1.6-0.4-1.9-0.8c-0.1-0.1-0.3-0.4-0.3-0.7c-0.2-0.8,0.1-0.9,0-1.5c0-0.8,0.3-2.5,0.6-3.5
			C1066.6,29,1067,27.7,1067.7,26z"/>
		<path class="st0" d="M1079.6,24.3c0,0.1-0.1,0.4-0.1,0.5c-0.5,1.8-0.8,3.2-1.2,5.3c0,0.2-0.1,0.3,0,0.4c0,0.1,0,0.1,0.1,0.1
			c0.1,0,0.2-0.1,0.3-0.3c0.6-0.8,1.6-1.8,2.1-2.3c0.3-0.3,0.5-0.4,0.7-0.4c0.3-0.1,0.4-0.1,0.5,0.3c0.2,0.8-0.3,0.9-0.8,1.7
			c-1.4,1.8-2.5,3.9-3.4,6c-0.3,0.6-0.5,1.2-0.6,1.6c-0.5,2.7-0.8,4.9-1.3,7.5c-0.1,0.3-0.3,1-0.9,1.1c-0.1,0-0.3-0.1-0.6-0.1
			c-0.7-0.1-0.8-0.8-0.8-0.9c0-0.3,0-0.5,0-0.6c0.6-3.3,2-6.3,2.3-9.6c0.1-0.4,0.1-0.8,0.3-1.7c0.4-2.6,1.1-5.3,1.3-7.9
			c0-0.3,0.2-0.5,0.3-0.7c0.1-0.1,0.3-0.3,0.3-0.3c0.3-0.1,0.3-0.1,0.6-0.2c0.3-0.1,0.6,0,0.8,0.1
			C1079.4,24,1079.6,24.1,1079.6,24.3z M1080.8,20c0,0.3-0.3,0.5-0.6,0.5c-0.3,0-0.9,0.1-1.5-0.5c-0.1-0.2-0.2-0.3-0.3-0.6
			c0-0.2-0.1-0.4-0.2-0.5c0-0.1,0-0.1,0.1-0.3c0.3-0.4,0.6-0.8,1.2-0.9c0.4-0.1,0.7-0.1,1.3,0.3c0.5,0.3,0.5,0.3,0.5,0.5
			C1081.4,19.2,1080.8,19.5,1080.8,20z"/>
		<path class="st0" d="M1088.7,23.2c1-0.2,1.5-0.3,2.1-0.4c0.8-0.2,1.5,0,1.6,0.3c0.1,0.3-0.5,0.5-0.6,0.7c0,0.1-0.1,0.2-0.3,0.2
			c-0.5,0.2-1.1,0.5-1.8,0.8c-0.5,0.2-0.8,0.3-0.9,0.3c-0.2,0-0.3,0.1-0.3,0.3c-0.2,2.7-0.6,5.1-1.8,7c-0.5,0.8-1.1,1.7-1.9,1.8
			c-0.3,0-0.4,0-0.6,0c-1-0.3-1.8-0.7-2.1-1.2c-0.4-0.6-0.6-1.3-0.8-1.9c-0.3-2,0.3-3.9,1.1-5.8c0.3-0.6,0.3-0.4,0.4-0.8
			c0.6-1.3,1.3-2.5,2.4-2.8c0.4-0.1,0.9-0.1,1.3,0.3c0.3,0.2,0.3,0.2,0.4,0.3C1087.6,22.6,1088,23.3,1088.7,23.2z M1086.1,23.5
			c-0.1-0.3-0.3-0.4-0.3-0.3c-0.1,0-0.3,0.2-0.3,0.3c-0.1,0.2-0.3,0.3-0.4,0.5c-0.6,1.1-2.3,4.5-1.8,7.3c0,0.1,0,0.2,0.2,0.3
			c0.1,0.2,0.5,0.6,0.8,0.7c0.1,0,0.2,0,0.3,0c0.3-0.1,0.3-0.2,0.4-0.3c0.2-0.1,0.2-0.2,0.3-0.5c1-2.3,1.9-4.5,1.5-6.9
			c0-0.1-0.1-0.4-0.1-0.5c-0.1-0.2-0.1-0.2-0.2-0.3C1086.2,23.8,1086.1,23.6,1086.1,23.5z"/>
		<path class="st0" d="M1093.9,21.9c-0.3,0.8-0.3,0.7-0.4,1c-0.5,1.9-0.5,3.2-0.8,5.2c-0.1,0.3-0.1,0.5-0.1,0.8c0,0.3,0,0.6,0,0.8
			c0.1,0.3,0.1,0.4,0.2,0.3c0.2,0,0.3-0.1,0.5-0.3c0.4-0.3,0.9-0.8,1.6-1.9c0.2-0.3,0.4-0.6,0.8-1.1c0.6-1.1,1.6-2,2.2-5.3
			c0-0.2,0.3-0.8,0.5-0.8c0.3-0.1,0.4,0.1,0.8,0c0.8-0.2,0.9,0.3,1,0.7c0.1,0.4-0.2,0.9-0.3,1.3l-0.3,0.8c-0.4,1-0.8,2.2-0.9,3.3
			c-0.1,0.6-0.6,3.3-0.7,3.8c-0.1,0.8-0.2,0.9-0.1,1c0,0.1,0.1,0,0.1,0s0.2-0.1,0.3-0.1c0.2,0,0.4,0,0.5,0.2c0.1,0.3,0,0.5,0,0.7
			c-1.3,2.5-1.6,4.9-1.7,7.3c0,1,0.3,2.4-1,2.8c-0.2,0.1-0.3,0.2-0.7,0.3c-0.3,0.1-0.9,0.1-1.1-0.8c-0.1-0.4,0-1.2,0.2-2
			c0.3-1.3,0.8-3,1.3-4.5c0-0.4,0.3-3,0.6-5.1c0.2-1.3,0.2-1.5,0.2-1.6s0-0.1-0.1-0.1s-0.2,0.1-0.3,0.3c-0.7,1-2.1,2.3-2.3,2.3
			c-1,0.2-1.8,0-2.4-0.5c-0.2-0.1-0.2-0.2-0.3-0.6c-0.6-3.3,0.5-5.9,0.8-9.2c0.1-0.5,0.5-0.8,0.8-0.8c0.1,0,0.4,0,0.7,0
			c0.3-0.1,0.7,0.1,0.8,0.4C1093.9,21.3,1093.9,21.5,1093.9,21.9z"/>
		<path class="st0" d="M1106.8,28.2c0.1,0.3,0.1,0.4,0,0.9s-0.3,1-0.6,1.1c-0.2,0-0.3,0.1-0.9,0.2c-0.4,0.1-0.9-0.9-1-1.3
			c-0.1-0.3,0-0.4,0.1-0.8c0.1-0.2,0-0.6,0.4-0.7c0.7-0.1,1,0.3,1.7,0.3C1106.7,27.9,1106.8,28.1,1106.8,28.2z M1108.2,14.7
			c0.2,0.9-0.3,1.7-0.3,2.4c-0.3,2.8-0.4,5.3-1,8c-0.1,0.3-0.1,0.3-0.3,0.3c-0.3,0.1-0.5-0.1-0.6-0.2c-0.3-0.6-0.8-0.6-0.8-0.9
			c0-0.2-0.1-0.3,0-0.4c0.1-0.5,0.1-0.7,0.1-1.1c0.1-2.4,0.5-4.4,0.4-6.8c0-0.8-0.1-2,0.7-2.1c0.2,0,0.3,0.1,0.6,0.1
			c0.3,0,0.4,0.3,0.6,0.3C1107.8,14.3,1108.1,14.4,1108.2,14.7z"/>
	</g>
	<g>
		<g>
			<path class="st1" d="M1144,61.2c-2.1,0-3.9-1.7-3.9-3.9c0-2.1,1.7-3.9,3.9-3.9c2.1,0,3.9,1.7,3.9,3.9S1146.1,61.2,1144,61.2z"/>
			<path class="st1" d="M1177.8,61.2c-2.1,0-3.9-1.7-3.9-3.9c0-2.1,1.7-3.9,3.9-3.9c2.1,0,3.9,1.7,3.9,3.9
				C1181.7,59.5,1180,61.2,1177.8,61.2z"/>
		</g>
		<g>
			<path class="st1" d="M1125.2,31.9h-3.4c-1,0-1.9,0.8-1.9,1.9V48c0,1,0.8,1.9,1.9,1.9h3.4c1,0,1.9-0.8,1.9-1.9V33.7
				C1127,32.7,1126.2,31.9,1125.2,31.9z"/>
			<path class="st1" d="M1191.6,36.1l-12-2.3l-11.1-8.4c-2.2-1.7-4.9-2.6-7.7-2.6h-4.6v-2.5h1.8c1.3,0,2.4-1.1,2.4-2.4v-4.5
				c0-1.3-1.1-2.4-2.4-2.4h-22.3c-1.3,0-2.4,1.1-2.4,2.4v4.5c0,1.3,1.1,2.4,2.4,2.4h1.6v2.5h-2.8c-3.1,0-5.7,2.5-5.7,5.7v24.9
				c0,1.6,1.3,2.8,2.8,2.8h2.2c0.6-5,4.8-8.9,10-8.9s9.4,3.9,10,8.9h11.1h2.7c0.6-5,4.8-8.9,10-8.9s9.4,3.9,10,8.9h4.4
				c1.6,0,2.8-1.3,2.8-2.8V40.2C1195,38.2,1193.6,36.4,1191.6,36.1z M1150.2,34.7h-17.6l0,0c-0.4,0-0.7-0.3-0.7-0.7v-5.6
				c0-1.5,1.2-2.7,2.7-2.7h15.6V34.7z M1141,22.8v-2.5h11.6v2.5H1141z M1166.5,41.3h-4c-0.3,0-0.5-0.2-0.5-0.5s0.2-0.5,0.5-0.5h4
				c0.3,0,0.5,0.2,0.5,0.5S1166.8,41.3,1166.5,41.3z M1174.9,34.7h-22.3v-9h8.3c2.1,0,4.2,0.7,5.9,2l8.4,6.4
				c0.1,0.1,0.2,0.3,0.1,0.4C1175.2,34.6,1175,34.7,1174.9,34.7z"/>
		</g>
		<path class="st1" d="M1213.7,64.5h-30.6h-0.8c2.4-1.5,3.9-4.1,3.9-7.1c0-4.7-3.8-8.4-8.4-8.4c-4.7,0-8.4,3.8-8.4,8.4
			c0,2.9,1.5,5.5,3.7,7l0.2,0.2h-24.4h-0.4c2.4-1.5,3.9-4.1,3.9-7.1c0-4.7-3.8-8.4-8.4-8.4c-4.7,0-8.4,3.8-8.4,8.4
			c0,2.9,1.5,5.5,3.7,7v0.2l-1125.6-3"/>
	</g>
</g>
</svg>
