<svg width="199" height="44" viewBox="0 0 199 44" fill="none" xmlns="http://www.w3.org/2000/svg">
<g clip-path="url(#clip0)">
<path d="M59.1 16.5L53 17.4L53.9 22.4L51.4 22.9L50.5 17.8L43.1 18.9L43.8 15.4L44.7 16.3L50.1 15.5L49.4 11.8L43.5 12.7L44.2 9.3L45.1 10.2L49 9.5L48.3 6L50.8 5.5L51.5 9.1L57.5 8.2L57.8 10.5L51.8 11.4L52.5 15.1L58.7 14.2L59.1 16.5Z" fill="black"/>
<path d="M77.5 13.5999C77.5 16.1999 75.6 18.3999 73.1 18.9999L74.9 14.8999L70.3 15.5999L71.8 22.8999L69.8 23.2999L68.3 15.8999L64.1 16.5999L64.5 14.0999L65.2 14.7999L67.9 14.2999L67.1 10.3999L69.3 10.7999L69.9 13.9999L75.6 12.9999L75.8 12.4999L77.4 13.3999V13.5999H77.5Z" fill="black"/>
<path d="M93.8 19.1C91.9 20.8 88.1 21.5 85.7 21.5C85 21.5 84.3 21.5 83.6 21.4L82.7 18.9C84.6 18.7 86.4 18.4 88.3 18C89.2 17.8 90.3 17.7 91.2 17.3C92.6 16.8 96.1 12.2 97 11C97 11.2 97 11.4 97 11.7C97.1 14.4 95.7 17.4 93.8 19.1ZM88.5 12L83.6 7.29995C84.1 7.19995 84.7 7.19995 85.2 7.19995C87 7.19995 89.6 7.99995 89.6 10.2C89.7 10.9 89.2 11.6 88.5 12Z" fill="black"/>
<path d="M117.2 9.19995C117 11.9 116.2 17.1 114.4 19.2C112.4 21.5 108.5 22.5 105.7 22.5C105.3 22.5 105 22.5 104.7 22.5C105.8 21.9 111 19.1 111.6 18.1C112.9 16.2 113.7 13.4 114.2 11.2H102.5L103.6 7.99995L104.3 8.99995H114.7L114.9 8.09995L117.2 9.19995ZM118.3 8.29995C117 8.29995 116 7.29995 116 5.99995C116 4.69995 117.1 3.69995 118.3 3.69995C119.6 3.69995 120.6 4.69995 120.6 5.99995C120.7 7.29995 119.6 8.29995 118.3 8.29995ZM118.3 5.09995C117.8 5.09995 117.3 5.49995 117.3 6.09995C117.3 6.59995 117.7 7.09995 118.3 7.09995C118.8 7.09995 119.3 6.69995 119.3 6.09995C119.3 5.49995 118.9 5.09995 118.3 5.09995Z" fill="black"/>
<path d="M135.2 7.80005C135.2 10.6 134.7 15.1 133.2 17.6C131.3 20.7 127.2 22.6 123.6 22.5H123C124.7 21.4 129.3 18.3 130.2 16.4C131.4 13.9 132.3 9.00005 132.8 6.30005L135.2 7.40005V7.80005Z" fill="black"/>
<path d="M149.2 15.6999L143.8 12.9999C144.9 12.5999 146.1 12.2999 147.3 12.2999C148.5 12.2999 150.2 12.6999 150.2 14.2999C150.2 14.9999 149.7 15.3999 149.2 15.6999ZM152.4 21.1999C151.4 21.4999 150.1 21.7999 149 21.7999H145.7L144.8 19.3999C146.8 19.1999 150.9 18.8999 152.8 18.0999C154.5 17.3999 158 12.9999 159 11.5999C159 16.3999 156.8 19.7999 152.4 21.1999ZM151.2 10.8999L146.4 6.4999C146.9 6.3999 147.4 6.3999 147.9 6.3999C149.5 6.3999 152.3 6.9999 152.3 9.0999C152.3 9.8999 151.8 10.4999 151.2 10.8999Z" fill="black"/>
<path d="M172.2 13.3999C171.7 14.5999 171 16.4999 170.1 17.4999C169 18.8999 166.3 19.2999 164.7 19.2999C164.4 19.2999 164.1 19.2999 163.8 19.2999C166.5 17.6999 169.2 14.5999 170.7 11.7999L172.2 13.3999ZM180.3 11.1999H175.9C176 13.2999 176.1 15.4999 176.1 17.6999C176.1 18.4999 176.1 19.2999 176.1 19.9999C176.1 20.3999 175.9 20.7999 175.7 21.0999C174.8 22.5999 173 23.0999 171.4 23.1999L169.4 20.3999H173L173.1 11.1999H164.4L165.5 7.99985L166.2 8.99985H173V5.09985H175.3C175.4 6.39985 175.5 7.69985 175.6 8.99985H180.1V11.1999H180.3Z" fill="black"/>
<path d="M190 17H187.1V6.5L190 7.9V17ZM198.2 15.9C198.2 16.6 197.9 17.6 197.6 18.3C196.1 21.6 192.7 22.7 189.3 22.7C190.9 21.7 195.2 18.5 195.2 16.3V6.6L198.2 7.5V15.9Z" fill="black"/>
<path d="M57.6 30.9001V38.5001H60.6V40.6001H55V30.9001H57.6Z" fill="black"/>
<path d="M68.6 37.8001H63.7C63.7 38.1001 63.8 38.6001 64.1 38.9001C64.2 39.0001 64.5 39.2001 65.1 39.2001C65.2 39.2001 65.6 39.2001 65.9 39.0001C66 38.9001 66.2 38.8001 66.3 38.6001H68.5C68.4 39.0001 68.2 39.5001 67.7 39.9001C67.2 40.4001 66.5 40.8001 65 40.8001C64.1 40.8001 63.1 40.6001 62.3 39.8001C61.9 39.4001 61.3 38.6001 61.3 37.3001C61.3 36.2001 61.7 35.3001 62.3 34.8001C62.8 34.3001 63.7 33.9001 65 33.9001C65.8 33.9001 66.7 34.1001 67.5 34.8001C68.4 35.7001 68.5 36.8001 68.5 37.5001V37.8001H68.6ZM66.5 36.5001C66.4 36.3001 66.3 36.0001 66.1 35.8001C65.8 35.5001 65.4 35.5001 65.1 35.5001C64.7 35.5001 64.4 35.6001 64.2 35.8001C64 36.0001 63.9 36.2001 63.9 36.5001H66.5Z" fill="black"/>
<path d="M72.6 36.1V40.7H70.3V36.1H69.6V34.2H70.3V32H72.6V34.1H73.9V36H72.6V36.1Z" fill="black"/>
<path d="M76.1 30.9001H78.3L75.9 35.2001H74.4L76.1 30.9001Z" fill="black"/>
<path d="M78.5 38.5001C78.8 38.7001 79.1 38.9001 79.4 39.0001C79.7 39.1001 80.1 39.2001 80.3 39.2001C80.5 39.2001 80.8 39.2001 80.9 39.0001C81 38.9001 81 38.8001 81 38.7001C81 38.6001 81 38.5001 80.9 38.4001C80.8 38.3001 80.5 38.2001 80.3 38.2001L79.7 38.0001C79.4 37.9001 78.9 37.8001 78.6 37.4001C78.4 37.1001 78.2 36.8001 78.2 36.3001C78.2 35.7001 78.4 35.1001 78.8 34.7001C79.3 34.2001 80.2 33.9001 81.1 33.9001C82 33.9001 82.8 34.2001 83.2 34.3001L82.4 35.8001C82.1 35.7001 81.6 35.5001 81.2 35.5001C81 35.5001 80.8 35.5001 80.7 35.6001C80.6 35.7001 80.5 35.8001 80.5 35.9001C80.5 36.1001 80.6 36.2001 80.8 36.3001C81 36.4001 81.2 36.4001 81.6 36.5001L82 36.6001C82.3 36.7001 82.8 36.9001 83 37.1001C83.3 37.4001 83.5 37.9001 83.5 38.4001C83.5 39.2001 83.2 39.7001 82.8 40.0001C82 40.8001 80.9 40.8001 80.4 40.8001C79.8 40.8001 78.9 40.7001 77.8 40.0001L78.5 38.5001Z" fill="black"/>
<path d="M95.3 34.0999V40.2C95.3 41.2 95.2 42.1 94.4 42.9C93.6 43.7 92.5 43.9 91.5 43.9C90.3 43.9 89.3 43.6 88.5 42.7C88.1 42.3 87.9 41.9 87.8 41.2999H90.4C90.5 41.5999 90.7 42 91.5 42C91.9 42 92.2 41.8999 92.5 41.5999C92.9 41.1999 93 40.8 93 40.4V39.7C92.3 40.5 91.6 40.5999 91 40.5999C89.8 40.5999 89 40.1 88.6 39.7C88 39.1 87.7 38.1999 87.7 37.2999C87.7 36.2999 88.1 35.3 88.7 34.7C89.3 34 90.2 33.7 91.1 33.7C91.5 33.7 92.4 33.7999 93 34.5999V33.9H95.3V34.0999ZM90.5 36.2999C90.2 36.5999 90 36.9999 90 37.2999C90 37.6999 90.2 38.1 90.5 38.4C90.8 38.7 91.2 38.7999 91.5 38.7999C91.9 38.7999 92.3 38.6 92.5 38.4C92.8 38.1 92.9 37.7 92.9 37.4C92.9 37.1 92.7 36.5999 92.4 36.2999C92.1 35.9999 91.8 35.9 91.4 35.9C91 35.9 90.8 35.9999 90.5 36.2999Z" fill="black"/>
<path d="M103.4 39.8001C102.5 40.6001 101.5 40.9001 100.5 40.9001C99.6 40.9001 98.5 40.7001 97.6 39.8001C96.9 39.1001 96.6 38.3001 96.6 37.4001C96.6 36.2001 97.1 35.5001 97.6 35.0001C98.1 34.5001 99.1 33.9001 100.5 33.9001C101.9 33.9001 102.9 34.5001 103.4 35.0001C103.9 35.5001 104.4 36.2001 104.4 37.4001C104.4 38.3001 104.1 39.1001 103.4 39.8001ZM99.5 36.3001C99.2 36.6001 99 37.0001 99 37.4001C99 37.8001 99.2 38.2001 99.5 38.4001C99.8 38.7001 100.2 38.8001 100.5 38.8001C100.9 38.8001 101.3 38.6001 101.5 38.4001C101.8 38.1001 102 37.7001 102 37.4001C102 37.1001 101.8 36.6001 101.5 36.3001C101.2 36.1001 100.8 35.9001 100.5 35.9001C100.1 35.9001 99.7 36.1001 99.5 36.3001Z" fill="black"/>
<path d="M116.4 40.4001C115.4 40.8001 114.8 40.9001 114.2 40.9001C112.5 40.9001 111.2 40.2001 110.4 39.4001C109.5 38.5001 108.9 37.1001 108.9 35.9001C108.9 34.5001 109.5 33.2 110.4 32.3C111.3 31.4 112.6 30.8 114.1 30.8C114.6 30.8 115.3 30.9 116.4 31.3V34.3C115.6 33.3 114.6 33.2001 114.2 33.2001C113.5 33.2001 112.9 33.4 112.5 33.8C111.9 34.4 111.7 35.1 111.7 35.8C111.7 36.5 112 37.2001 112.5 37.7001C112.9 38.1001 113.6 38.4001 114.3 38.4001C114.7 38.4001 115.6 38.4001 116.5 37.4001V40.4001H116.4Z" fill="black"/>
<path d="M123.9 39.0001H120.4L119.7 40.6001H117L120.7 30.9001H123.5L127.2 40.6001H124.5L123.9 39.0001ZM123.2 37.1001L122.1 34.0001L121 37.1001H123.2Z" fill="black"/>
<path d="M127.9 40.7L129.5 31H132L134 36.2L136.1 31H138.6L140.1 40.7H137.6L136.9 35.1L134.6 40.7H133.6L131.4 35.1L130.6 40.7H127.9Z" fill="black"/>
<path d="M144.2 37.4001V40.6001H141.7V30.9001H145.7C146.5 30.9001 147.4 31.1001 148.2 31.8001C149 32.5001 149.1 33.3001 149.1 34.2001C149.1 35.0001 149 35.9001 148.2 36.6001C147.4 37.3001 146.5 37.4001 145.8 37.4001H144.2ZM144.2 35.4001H145C145.3 35.4001 145.8 35.4001 146.1 35.1001C146.4 34.8001 146.4 34.4001 146.4 34.2001C146.4 33.9001 146.4 33.6001 146.1 33.3001C145.8 33.0001 145.3 33.0001 145 33.0001H144.1V35.4001H144.2Z" fill="black"/>
<path d="M152.9 30.9001V40.6001H150.4V30.9001H152.9Z" fill="black"/>
<path d="M154.9 40.7V31H157.4L162 36.9V31H164.5V40.7H162L157.4 34.8V40.7H154.9Z" fill="black"/>
<path d="M171.3 35.2001H176.3C176.3 37.1001 175.9 38.5001 174.7 39.6001C173.7 40.5001 172.5 40.8001 171.3 40.8001C169.6 40.8001 168.4 40.2001 167.6 39.4001C166.9 38.7001 166.2 37.5001 166.2 35.9001C166.2 34.4001 166.8 33.1001 167.7 32.3001C168.5 31.5001 169.8 30.9001 171.5 30.9001C172.4 30.9001 173.4 31.1001 174.1 31.6001C174.9 32.1001 175.5 32.8001 175.8 33.6001L173.4 34.6001C173.2 34.1001 172.9 33.8001 172.7 33.6001C172.3 33.3001 171.8 33.1001 171.3 33.1001C170.7 33.1001 170.1 33.3001 169.6 33.8001C169 34.4001 168.8 35.3001 168.8 36.0001C168.8 36.9001 169.1 37.6001 169.6 38.1001C170.1 38.6001 170.6 38.8001 171.4 38.8001C171.8 38.8001 172.3 38.7001 172.8 38.3001C173 38.1001 173.3 37.8001 173.4 37.2001H171.3V35.2001Z" fill="black"/>
<path d="M22.2 5.5L0.5 43.2H44L22.2 5.5Z" stroke="#6868AF" stroke-width="0.9216" stroke-miterlimit="10" stroke-linecap="round" stroke-linejoin="round"/>
<path d="M22.2 30.5L33.3 36.9L29.6 43.2L22.2 30.5Z" stroke="#6868AF" stroke-width="0.9216" stroke-miterlimit="10" stroke-linecap="round" stroke-linejoin="round"/>
<path d="M22.2 30.5L14.9 43.2H22.2H29.6L22.2 30.5Z" fill="#6868AF" stroke="#6868AF" stroke-width="0.9216" stroke-miterlimit="10" stroke-linecap="round" stroke-linejoin="round"/>
<path d="M25.2 0.5L22.2 5.5L19.3 0.5" stroke="#6868AF" stroke-width="0.9216" stroke-miterlimit="10" stroke-linecap="round" stroke-linejoin="round"/>
<path d="M22.2 0.5V43.2" stroke="#6868AF" stroke-width="0.9216" stroke-miterlimit="10" stroke-linecap="round" stroke-linejoin="round"/>
</g>
<defs>
<clipPath id="clip0">
<rect width="198.2" height="44" fill="white"/>
</clipPath>
</defs>
</svg>
