<?xml version="1.0" encoding="utf-8"?>
<!-- Generator: Adobe Illustrator 25.2.3, SVG Export Plug-In . SVG Version: 6.00 Build 0)  -->
<svg version="1.1" id="レイヤー_1" xmlns="http://www.w3.org/2000/svg" xmlns:xlink="http://www.w3.org/1999/xlink" x="0px"
	 y="0px" viewBox="0 0 290.4 102.2" style="enable-background:new 0 0 290.4 102.2;" xml:space="preserve">
<style type="text/css">
	.st0{fill:#040000;}
	.st1{fill:#FFFFFF;stroke:#040000;stroke-width:1.69;stroke-linecap:round;stroke-linejoin:round;}
	.st2{enable-background:new    ;}
	
		.st3{fill:none;stroke:#6464A5;stroke-width:1.35;stroke-linecap:round;stroke-linejoin:round;stroke-dasharray:0,2.71,43.99,2.71,16.92,1.69;}
	.st4{fill:#6464A5;stroke:#6464A5;stroke-width:1.35;stroke-linecap:round;stroke-linejoin:round;}
</style>
<g id="レイヤー_2_1_">
	<g id="レイヤー_3">
		<path class="st0" d="M280.8,95.8l-262.1,6.5c-5.5,0.1-10-4.2-10.1-9.6L3.9,17.2C3.7,11.8,8,7.2,13.5,7.1l262.1-6.5
			c5.5-0.1,10,4.2,10.1,9.6l4.7,75.4C290.6,91.1,286.3,95.6,280.8,95.8z"/>
		<path class="st1" d="M11.3,0.8h261.1c5.8,0,10.4,4.7,10.4,10.4v74.4c0,5.8-4.7,10.4-10.4,10.4H11.3c-5.8,0-10.4-4.7-10.4-10.4
			V11.3C0.9,5.5,5.5,0.8,11.3,0.8z"/>
	</g>
	<g id="レイヤー_1-2">
		<g class="st2">
			<path class="st0" d="M99.6,45.6l-7.1,1l1.1,5.8l-3,0.6l-1.1-5.9l-8.7,1.3l0.8-4.1l1.1,1l6.3-0.9L88.1,40l-6.9,1l0.8-4l1,1
				l4.6-0.7l-0.7-4l3-0.6l0.8,4.2l7.1-1.1l0.4,2.7l-7,1l0.8,4.4l7.2-1.1L99.6,45.6z"/>
		</g>
		<g class="st2">
			<path class="st0" d="M121.1,42.1c0.1,3.1-2.2,5.7-5.2,6.4l2.1-4.9l-5.4,0.9l1.7,8.6l-2.4,0.5l-1.7-8.6l-4.9,0.8l0.5-3l0.8,0.8
				l3.2-0.6l-0.9-4.6l2.6,0.4l0.7,3.8l6.7-1.1l0.2-0.6l1.9,1V42.1z"/>
		</g>
		<g class="st2">
			<path class="st0" d="M140.3,48.6c-2.2,2-6.7,2.8-9.5,2.8c-0.8,0-1.6-0.1-2.4-0.1l-1-2.9c2.2-0.3,4.4-0.6,6.6-1
				c1.1-0.2,2.4-0.4,3.4-0.8c1.7-0.6,5.8-6,6.8-7.3c0,0.3,0,0.5,0,0.8C144.1,43.1,142.6,46.6,140.3,48.6z M134.1,40.2l-5.7-5.5
				c0.6-0.1,1.3-0.2,1.9-0.2c2.1,0,5.2,0.9,5.2,3.5C135.4,39,134.9,39.8,134.1,40.2z"/>
		</g>
		<g class="st2">
			<path class="st0" d="M167.8,37c-0.2,3.1-1.2,9.3-3.3,11.8c-2.3,2.7-6.9,3.9-10.2,3.9c-0.4,0-0.8,0-1.2,0c1.3-0.7,7.3-4,8.1-5.2
				c1.5-2.2,2.4-5.5,3.1-8.1l-13.8,0l1.3-3.8l0.8,1.1h12.2l0.2-1.1L167.8,37z M169.1,36c-1.5,0-2.7-1.2-2.7-2.7
				c0-1.5,1.2-2.7,2.7-2.7c1.5,0,2.7,1.2,2.7,2.7C171.9,34.8,170.6,36,169.1,36z M169.1,32.1c-0.6,0-1.2,0.5-1.2,1.2
				c0,0.6,0.5,1.2,1.2,1.2s1.2-0.5,1.2-1.2C170.3,32.6,169.8,32.1,169.1,32.1z"/>
			<path class="st0" d="M188.9,35.4c0,3.3-0.6,8.6-2.4,11.5c-2.2,3.7-7.1,5.9-11.2,5.8h-0.7c2-1.3,7.3-4.9,8.5-7.2
				c1.5-3,2.5-8.7,3-11.9l2.9,1.2V35.4z"/>
		</g>
		<g class="st2">
			<path class="st0" d="M205.4,44.7l-6.3-3.1c1.3-0.5,2.7-0.9,4.1-0.9c1.5,0,3.5,0.5,3.5,2.4C206.6,43.8,206,44.3,205.4,44.7z
				 M209.2,51.2c-1.2,0.4-2.7,0.7-4,0.7h-3.9l-1.1-2.8c2.3-0.2,7.1-0.6,9.4-1.5c2-0.8,6.1-6,7.3-7.6
				C216.9,45.4,214.4,49.4,209.2,51.2z M207.8,39l-5.7-5.2c0.6-0.1,1.2-0.1,1.8-0.1c1.9,0,5.1,0.7,5.1,3.1
				C209,37.8,208.4,38.5,207.8,39z"/>
		</g>
		<g class="st2">
			<path class="st0" d="M232.4,42c-0.6,1.5-1.5,3.6-2.4,4.8c-1.3,1.6-4.5,2.1-6.4,2.1c-0.3,0-0.7,0-1,0c3.2-1.8,6.4-5.5,8.1-8.8
				L232.4,42z M241.9,39.3l-5.1,0c0.1,2.5,0.2,5,0.2,7.6c0,0.9,0,1.8-0.1,2.7c0,0.4-0.2,1-0.4,1.3c-1,1.8-3.1,2.4-5,2.5l-2.3-3.3
				h4.3l0.1-10.8h-10.2l1.3-3.8l0.8,1.1h8l0-4.6h2.7c0.1,1.5,0.2,3.1,0.3,4.6h5.3V39.3z"/>
		</g>
		<g class="st2">
			<path class="st0" d="M253.3,46.1h-3.4V33.9l3.4,1.6V46.1z M262.9,44.9c0,0.9-0.3,2-0.7,2.8c-1.7,3.9-5.7,5.2-9.8,5.2
				c1.8-1.2,6.9-4.9,6.9-7.5l0-11.4l3.6,1V44.9z"/>
		</g>
		<g class="st2">
			<path class="st0" d="M97.8,62.6v8.9h3.6V74h-6.5V62.6H97.8z"/>
			<path class="st0" d="M110.7,70.6H105c0,0.4,0.2,1,0.5,1.3c0.2,0.2,0.5,0.4,1.1,0.4c0.1,0,0.5,0,0.9-0.2c0.2-0.1,0.4-0.3,0.5-0.5
				h2.6c-0.1,0.4-0.4,1-0.9,1.6s-1.5,1.1-3.1,1.1c-1,0-2.2-0.2-3.2-1.2c-0.5-0.5-1.1-1.4-1.1-2.9c0-1.3,0.5-2.3,1.1-3
				c0.6-0.6,1.6-1.1,3.1-1.1c0.9,0,2,0.2,2.9,1c1.1,1,1.2,2.4,1.2,3.2V70.6z M108.2,69.1c-0.1-0.3-0.2-0.6-0.4-0.8
				c-0.4-0.4-0.9-0.4-1.1-0.4c-0.5,0-0.8,0.1-1.1,0.4c-0.2,0.2-0.4,0.5-0.4,0.8H108.2z"/>
			<path class="st0" d="M115.3,68.6V74h-2.7v-5.4h-0.9v-2.2h0.9v-2.5h2.7v2.5h1.6v2.2H115.3z"/>
		</g>
		<g class="st2">
			<path class="st0" d="M119.5,62.6h2.6l-2.8,5h-1.8L119.5,62.6z"/>
		</g>
		<g class="st2">
			<path class="st0" d="M122.3,71.4c0.3,0.2,0.7,0.4,1.1,0.6c0.3,0.1,0.8,0.2,1.1,0.2c0.2,0,0.5-0.1,0.7-0.2
				c0.1-0.1,0.1-0.2,0.1-0.4c0-0.1,0-0.2-0.1-0.3c-0.2-0.2-0.4-0.2-0.7-0.3l-0.7-0.2c-0.4-0.1-0.9-0.2-1.3-0.7
				c-0.3-0.3-0.5-0.7-0.5-1.3c0-0.7,0.3-1.4,0.7-1.9c0.6-0.6,1.6-0.9,2.7-0.9s2,0.3,2.4,0.5l-0.9,1.7c-0.4-0.2-0.9-0.4-1.4-0.4
				c-0.3,0-0.5,0.1-0.6,0.2c-0.2,0.1-0.2,0.2-0.2,0.4c0,0.2,0.2,0.4,0.3,0.4c0.3,0.1,0.5,0.1,0.9,0.2l0.5,0.1
				c0.4,0.1,0.9,0.4,1.1,0.6c0.4,0.4,0.6,1,0.6,1.5c0,0.9-0.4,1.5-0.8,1.9c-0.9,0.9-2.2,1-2.8,1c-0.7,0-1.8-0.1-3.1-0.9L122.3,71.4z
				"/>
			<path class="st0" d="M142,66.3v7.2c0,1.1-0.1,2.2-1,3.2c-1,1-2.3,1.2-3.4,1.2c-1.4,0-2.6-0.4-3.6-1.4c-0.4-0.5-0.7-0.9-0.8-1.6h3
				c0.1,0.3,0.4,0.8,1.3,0.8c0.4,0,0.9-0.1,1.2-0.4c0.5-0.4,0.5-1,0.5-1.4v-0.8c-0.9,0.9-1.7,1-2.3,1c-1.4,0-2.3-0.5-2.8-1.1
				c-0.7-0.7-1.1-1.7-1.1-2.8c0-1.2,0.5-2.3,1.1-3c0.7-0.8,1.8-1.2,2.8-1.2c0.5,0,1.5,0.1,2.3,1v-0.8H142z M136.4,68.9
				c-0.4,0.4-0.5,0.9-0.5,1.2c0,0.4,0.2,0.9,0.5,1.2c0.4,0.4,0.8,0.5,1.2,0.5c0.4,0,0.9-0.2,1.2-0.5c0.3-0.3,0.5-0.8,0.5-1.2
				c0-0.4-0.2-0.9-0.5-1.2c-0.3-0.3-0.8-0.5-1.2-0.5S136.8,68.5,136.4,68.9z"/>
			<path class="st0" d="M151.6,73c-1,1-2.2,1.3-3.4,1.3c-1.1,0-2.3-0.2-3.4-1.3c-0.8-0.8-1.2-1.8-1.2-2.8c0-1.4,0.6-2.3,1.2-2.8
				c0.6-0.6,1.7-1.3,3.4-1.3c1.7,0,2.8,0.7,3.4,1.3c0.6,0.5,1.2,1.4,1.2,2.8C152.8,71.2,152.4,72.1,151.6,73z M147,68.9
				c-0.3,0.3-0.5,0.8-0.5,1.2c0,0.5,0.2,0.9,0.5,1.2c0.3,0.3,0.8,0.5,1.2,0.5c0.4,0,0.9-0.2,1.2-0.5c0.3-0.3,0.5-0.8,0.5-1.2
				c0-0.4-0.2-0.9-0.5-1.2c-0.3-0.3-0.8-0.5-1.2-0.5C147.7,68.4,147.3,68.6,147,68.9z"/>
			<path class="st0" d="M166.8,73.7c-1.2,0.4-1.8,0.6-2.6,0.6c-2,0-3.5-0.8-4.4-1.7c-1.1-1.1-1.7-2.7-1.7-4.2c0-1.6,0.7-3.2,1.7-4.2
				c1-1,2.5-1.8,4.3-1.8c0.5,0,1.4,0.1,2.7,0.6v3.5c-1-1.2-2.1-1.2-2.6-1.2c-0.9,0-1.5,0.3-2.1,0.8c-0.7,0.7-1,1.5-1,2.3
				c0,0.8,0.3,1.7,0.9,2.2c0.5,0.5,1.3,0.8,2.1,0.8c0.4,0,1.5-0.1,2.6-1.2V73.7z"/>
			<path class="st0" d="M175.6,72.1h-4.1l-0.8,1.9h-3.1l4.4-11.4h3.2l4.3,11.4h-3.2L175.6,72.1z M174.9,69.8l-1.3-3.7l-1.2,3.7
				H174.9z"/>
			<path class="st0" d="M180.3,74l1.9-11.4h2.9l2.3,6.1l2.4-6.1h3l1.7,11.4h-3l-0.8-6.6l-2.8,6.6h-1.2l-2.6-6.6l-1,6.6H180.3z"/>
			<path class="st0" d="M199.5,70.2V74h-3V62.6h4.7c1,0,2,0.2,2.9,1c0.9,0.9,1.1,1.8,1.1,2.8c0,0.9-0.1,2-1,2.8c-0.9,0.9-2,1-2.8,1
				H199.5z M199.5,67.8h1c0.3,0,0.9,0,1.2-0.4c0.4-0.3,0.4-0.8,0.4-1c0-0.3,0-0.7-0.3-1c-0.3-0.4-0.9-0.4-1.3-0.4h-1V67.8z"/>
			<path class="st0" d="M209.7,62.6V74h-3V62.6H209.7z"/>
			<path class="st0" d="M212.1,74V62.6h3l5.5,7v-7h3V74h-3l-5.5-7v7H212.1z"/>
			<path class="st0" d="M231.4,67.5h5.9c0,2.3-0.5,3.9-1.8,5.1c-1.2,1.1-2.6,1.4-4,1.4c-2.1,0-3.5-0.8-4.4-1.7
				c-0.9-0.9-1.6-2.2-1.6-4.1c0-1.8,0.7-3.3,1.7-4.3c0.9-0.9,2.4-1.7,4.4-1.7c1.1,0,2.2,0.2,3.1,0.8c0.9,0.5,1.6,1.5,2,2.3l-2.8,1.2
				c-0.2-0.5-0.5-0.9-0.8-1.1c-0.5-0.4-1-0.6-1.6-0.6c-0.7,0-1.4,0.3-2,0.8c-0.7,0.7-1,1.7-1,2.6c0,1,0.4,1.9,0.9,2.5
				c0.5,0.6,1.2,0.9,2.1,0.9c0.5,0,1.1-0.1,1.6-0.5c0.3-0.2,0.6-0.6,0.7-1.3h-2.4V67.5z"/>
		</g>
	</g>
	<g id="elements">
		<polygon class="st3" points="48,19.7 16,75 80,75 		"/>
		<polygon class="st3" points="48,56.3 64.2,65.7 58.8,75 		"/>
		<polygon class="st4" points="48,56.3 37.2,75 48,75 58.8,75 		"/>
		<polyline class="st3" points="52.3,12.2 48,19.7 43.7,12.2 		"/>
		<line class="st3" x1="48" y1="12.2" x2="48" y2="75"/>
	</g>
</g>
</svg>
