<svg width="416" height="265" viewBox="0 0 416 265" fill="none" xmlns="http://www.w3.org/2000/svg">
<g clip-path="url(#clip0)">
<path d="M401.293 255.047L28.6379 265C20.3003 265.207 13.3609 258.624 13.102 250.278L5.90369 26.3861C5.69654 18.04 12.2734 11.0936 20.611 10.8344L393.266 0.933233C401.603 0.725878 408.543 7.30941 408.802 15.6555L416 239.495C416.259 247.893 409.63 254.84 401.293 255.047Z" fill="black"/>
<path d="M388.398 255.565H17.2449C8.4412 255.565 1.29468 248.412 1.29468 239.599V17.2623C1.29468 8.44965 8.4412 1.2959 17.2449 1.2959H388.398C397.202 1.2959 404.348 8.44965 404.348 17.2623V239.599C404.296 248.412 397.202 255.565 388.398 255.565Z" fill="white" stroke="black" stroke-width="5" stroke-miterlimit="10" stroke-linecap="round" stroke-linejoin="round"/>
<path d="M91.6101 56.4007L80.6832 57.9558L82.3404 66.9239L77.7832 67.7533L76.0742 58.6297L62.8169 60.5478L64.0598 54.2234L65.6651 55.7786L75.2974 54.3789L74.1063 47.6399L63.4901 49.1951L64.6812 43.0262L66.2348 44.5814L73.3295 43.5446L72.1902 37.3758L76.7474 36.5464L77.9385 42.9226L88.8137 41.3156L89.4351 45.4108L78.7153 46.966L79.9064 53.6532L90.9887 52.0462L91.6101 56.4007Z" fill="black"/>
<path d="M124.598 51.0612C124.702 55.7785 121.18 59.7701 116.623 60.8069L119.886 53.3421L111.703 54.6899L114.344 67.8569L110.719 68.5827L108.078 55.3638L100.621 56.5561L101.45 51.9943L102.641 53.1865L107.509 52.3571L106.11 45.3589L110.046 46.0328L111.185 51.7869L121.439 50.0244L121.802 49.195L124.65 50.7501V51.0612H124.598Z" fill="black"/>
<path d="M153.909 61.0663C150.491 64.1766 143.655 65.4207 139.305 65.4207C138.063 65.4207 136.82 65.317 135.577 65.2134L134.023 60.7552C137.389 60.2887 140.755 59.8221 144.07 59.2001C145.727 58.889 147.643 58.6298 149.248 58.0078C151.786 57.0228 158.156 48.8323 159.709 46.7587C159.709 47.1734 159.761 47.5363 159.761 47.951C159.813 52.5647 157.431 57.9559 153.909 61.0663ZM144.38 48.2102L135.629 39.7087C136.613 39.5531 137.545 39.4495 138.58 39.4495C141.843 39.4495 146.504 40.8491 146.504 44.8925C146.504 46.344 145.623 47.4845 144.38 48.2102Z" fill="black"/>
<path d="M196.115 43.2337C195.804 48.0028 194.354 57.4375 191.04 61.3254C187.518 65.4725 180.476 67.3387 175.349 67.3387C174.727 67.3387 174.106 67.3387 173.484 67.2869C175.4 66.2501 184.722 61.1699 185.913 59.3037C188.192 55.8823 189.642 50.9058 190.626 46.9142L169.549 46.966L171.62 41.1601L172.915 42.9226H191.61L191.972 41.2119L196.115 43.2337ZM198.083 41.6785C195.804 41.6785 193.94 39.8123 193.94 37.5314C193.94 35.2505 195.856 33.3843 198.083 33.3843C200.31 33.3843 202.226 35.2505 202.226 37.5314C202.226 39.8123 200.361 41.6785 198.083 41.6785ZM198.083 35.7689C197.099 35.7689 196.322 36.5464 196.322 37.5314C196.322 38.5163 197.151 39.2939 198.083 39.2939C199.015 39.2939 199.844 38.4645 199.844 37.5314C199.844 36.5464 199.067 35.7689 198.083 35.7689Z" fill="black"/>
<path d="M228.378 40.6935C228.43 45.7737 227.394 53.8087 224.701 58.3187C221.283 63.9691 213.878 67.2868 207.508 67.1313H206.472C209.528 65.2133 217.71 59.6665 219.419 56.1415C221.646 51.6315 223.199 42.8189 224.028 37.946L228.378 39.8641V40.6935Z" fill="black"/>
<path d="M253.494 54.9492L243.862 50.18C245.83 49.4024 247.953 48.8322 250.076 48.8322C252.303 48.8322 255.359 49.6616 255.359 52.4091C255.41 53.6014 254.478 54.4308 253.494 54.9492ZM259.346 64.9022C257.482 65.5243 255.255 65.9908 253.287 65.9908H247.28L245.623 61.7401C249.196 61.429 256.55 60.7551 259.916 59.4591C262.971 58.2669 269.289 50.2318 271.102 47.7954C271.153 56.1415 267.269 62.2584 259.346 64.9022ZM257.171 46.3439L248.523 38.4644C249.403 38.3608 250.335 38.2571 251.216 38.2571C254.064 38.2571 259.035 39.3457 259.035 43.0781C259.087 44.4259 258.207 45.5663 257.171 46.3439Z" fill="black"/>
<path d="M294.872 50.8539C294.043 53.083 292.645 56.3488 291.143 58.215C289.123 60.7033 284.256 61.4808 281.355 61.4808C280.838 61.4808 280.32 61.4808 279.802 61.429C284.67 58.5779 289.589 53.0311 292.127 47.9509L294.872 50.8539ZM309.475 46.8105L301.656 46.8623C301.863 50.6984 302.018 54.5863 302.018 58.4742C302.018 59.8738 302.018 61.2735 301.915 62.6213C301.863 63.2434 301.552 64.0728 301.241 64.643C299.688 67.3905 296.477 68.3236 293.525 68.4272L290.004 63.347H296.529L296.632 46.8105H281.045L283.116 41.0045L284.411 42.767H296.684L296.736 35.7688H300.879C301.086 38.1015 301.241 40.4861 301.397 42.767H309.475V46.8105Z" fill="black"/>
<path d="M326.927 57.2301H321.697V38.4126L326.927 40.9009V57.2301ZM341.583 55.3639C341.583 56.7117 341.117 58.4742 340.547 59.7184C337.854 65.7317 331.795 67.5979 325.581 67.5979C328.377 65.8353 336.145 60.0812 336.145 56.0896L336.094 38.6718L341.531 40.227V55.3639H341.583Z" fill="black"/>
<path d="M97.1512 202.119V215.753H102.589V219.589H92.594V202.068H97.1512V202.119Z" fill="black"/>
<path d="M116.985 214.509H108.234C108.234 215.131 108.492 215.96 108.959 216.479C109.217 216.738 109.735 217.049 110.667 217.049C110.771 217.049 111.496 216.997 112.014 216.738C112.273 216.583 112.584 216.323 112.739 215.96H116.727C116.519 216.634 116.157 217.516 115.328 218.397C114.448 219.226 113.101 220.004 110.564 220.004C109.01 220.004 107.146 219.641 105.696 218.241C104.919 217.464 103.987 216.012 103.987 213.783C103.987 211.813 104.712 210.258 105.748 209.221C106.732 208.288 108.234 207.511 110.564 207.511C111.91 207.511 113.671 207.822 115.069 209.118C116.727 210.673 116.934 212.746 116.934 214.042V214.509H116.985ZM113.101 212.073C112.998 211.606 112.739 211.139 112.428 210.828C111.859 210.258 111.134 210.206 110.719 210.206C109.994 210.206 109.476 210.414 109.01 210.828C108.7 211.139 108.441 211.554 108.389 212.073H113.101Z" fill="black"/>
<path d="M124.028 211.295V219.589H119.834V211.295H118.487V207.874H119.834V204.038H124.028V207.874H126.411V211.295H124.028Z" fill="black"/>
<path d="M130.398 202.12H134.334L130.087 209.844H127.395L130.398 202.12Z" fill="black"/>
<path d="M134.645 215.701C135.162 216.064 135.732 216.375 136.302 216.583C136.82 216.79 137.493 216.894 137.907 216.894C138.218 216.894 138.736 216.79 138.995 216.583C139.202 216.375 139.202 216.22 139.202 216.012C139.202 215.805 139.15 215.649 138.995 215.494C138.736 215.235 138.321 215.183 137.907 215.079L136.82 214.82C136.25 214.665 135.421 214.457 134.8 213.783C134.334 213.317 134.023 212.643 134.023 211.762C134.023 210.621 134.489 209.584 135.111 208.91C135.991 207.977 137.596 207.511 139.305 207.511C141.014 207.511 142.361 207.977 143.034 208.288L141.636 210.984C141.066 210.725 140.186 210.414 139.409 210.414C138.995 210.414 138.684 210.517 138.425 210.673C138.166 210.828 138.062 210.984 138.062 211.243C138.062 211.606 138.321 211.813 138.58 211.917C138.995 212.073 139.305 212.073 139.979 212.28L140.755 212.487C141.325 212.643 142.154 213.058 142.464 213.42C143.034 213.991 143.345 214.872 143.345 215.753C143.345 217.153 142.723 218.138 142.154 218.656C140.807 220.004 138.787 220.108 137.804 220.108C136.768 220.108 135.111 219.952 133.091 218.76L134.645 215.701Z" fill="black"/>
<path d="M164.836 207.874V218.863C164.836 220.626 164.681 222.233 163.231 223.736C161.729 225.24 159.761 225.603 158.052 225.603C155.877 225.603 154.064 225.032 152.563 223.529C151.889 222.803 151.423 222.129 151.268 221.093H155.929C156.084 221.559 156.498 222.285 157.897 222.285C158.57 222.285 159.191 222.129 159.761 221.611C160.486 220.937 160.589 220.108 160.589 219.434V218.241C159.295 219.641 158 219.797 157.068 219.797C154.893 219.797 153.547 218.967 152.718 218.138C151.682 217.049 151.113 215.442 151.113 213.887C151.113 212.073 151.838 210.362 152.822 209.273C153.961 208.081 155.514 207.511 157.068 207.511C157.793 207.511 159.347 207.666 160.538 209.066V207.874H164.836ZM156.291 211.813C155.67 212.435 155.463 213.161 155.463 213.68C155.463 214.353 155.773 215.079 156.291 215.598C156.861 216.168 157.534 216.375 158.155 216.375C158.829 216.375 159.554 216.064 160.02 215.598C160.538 215.079 160.797 214.302 160.797 213.731C160.797 213.161 160.434 212.332 159.968 211.813C159.502 211.347 158.829 211.036 158.104 211.036C157.379 211.036 156.861 211.243 156.291 211.813Z" fill="black"/>
<path d="M179.492 218.034C177.938 219.537 176.125 219.952 174.261 219.952C172.552 219.952 170.688 219.589 169.031 218.034C167.736 216.79 167.218 215.287 167.218 213.68C167.218 211.606 168.15 210.206 169.031 209.377C170.015 208.444 171.724 207.459 174.261 207.459C176.85 207.459 178.508 208.496 179.492 209.377C180.372 210.206 181.304 211.606 181.304 213.68C181.304 215.287 180.786 216.79 179.492 218.034ZM172.397 211.813C171.879 212.332 171.568 213.058 171.568 213.731C171.568 214.457 171.931 215.131 172.397 215.598C172.915 216.116 173.588 216.375 174.261 216.375C174.934 216.375 175.608 216.064 176.125 215.598C176.643 215.079 176.954 214.405 176.954 213.731C176.954 213.109 176.643 212.332 176.125 211.813C175.659 211.347 174.934 211.036 174.261 211.036C173.588 211.036 172.863 211.347 172.397 211.813Z" fill="black"/>
<path d="M202.795 219.123C200.983 219.796 199.999 220.004 198.86 220.004C195.804 220.004 193.526 218.812 192.076 217.36C190.367 215.649 189.435 213.265 189.435 210.984C189.435 208.496 190.522 206.111 192.076 204.504C193.629 202.949 195.96 201.757 198.704 201.757C199.533 201.757 200.931 201.912 202.795 202.638V208.081C201.345 206.267 199.585 206.163 198.86 206.163C197.565 206.163 196.529 206.578 195.701 207.303C194.613 208.288 194.199 209.688 194.199 210.88C194.199 212.073 194.717 213.42 195.597 214.302C196.374 215.027 197.565 215.494 198.86 215.494C199.533 215.494 201.242 215.39 202.795 213.68V219.123Z" fill="black"/>
<path d="M216.312 216.686H209.994L208.803 219.641H204.038L210.771 202.12H215.742L222.319 219.641H217.451L216.312 216.686ZM215.121 213.213L213.153 207.563L211.237 213.213H215.121Z" fill="black"/>
<path d="M223.51 219.589L226.462 202.068H230.967L234.489 211.399L238.217 202.068H242.775L245.416 219.589H240.858L239.564 209.532L235.369 219.589H233.557L229.517 209.532L228.015 219.589H223.51Z" fill="black"/>
<path d="M252.769 213.783V219.589H248.212V202.068H255.462C256.964 202.068 258.569 202.379 259.916 203.623C261.262 204.919 261.521 206.422 261.521 207.874C261.521 209.273 261.314 210.88 259.968 212.228C258.621 213.576 256.964 213.731 255.617 213.731H252.769V213.783ZM252.769 210.154H254.271C254.737 210.154 255.617 210.103 256.187 209.584C256.757 209.118 256.757 208.392 256.757 207.977C256.757 207.511 256.705 206.889 256.239 206.422C255.721 205.852 254.892 205.8 254.323 205.8H252.769V210.154Z" fill="black"/>
<path d="M268.512 202.12V219.641H263.955V202.12H268.512Z" fill="black"/>
<path d="M272.137 219.589V202.068H276.695L285.032 212.798V202.068H289.589V219.589H285.032L276.695 208.91V219.641H272.137V219.589Z" fill="black"/>
<path d="M301.656 209.688H310.666C310.666 213.161 309.941 215.598 307.87 217.567C306.057 219.278 303.934 219.797 301.707 219.797C298.548 219.797 296.425 218.656 294.975 217.205C293.68 215.909 292.438 213.783 292.438 210.88C292.438 208.081 293.525 205.8 295.079 204.297C296.529 202.845 298.756 201.705 301.863 201.705C303.468 201.705 305.229 202.068 306.575 202.897C307.922 203.727 309.061 205.126 309.682 206.474L305.332 208.237C305.022 207.407 304.504 206.837 304.09 206.474C303.313 205.852 302.536 205.593 301.656 205.593C300.568 205.593 299.481 206.007 298.652 206.785C297.616 207.822 297.15 209.429 297.15 210.777C297.15 212.384 297.72 213.68 298.548 214.561C299.377 215.442 300.413 215.909 301.759 215.909C302.536 215.909 303.468 215.753 304.297 215.079C304.711 214.716 305.229 214.094 305.384 213.161H301.656V209.688Z" fill="black"/>
<path d="M205.799 99.6343L156.913 184.443H254.737L205.799 99.6343Z" stroke="#6868AF" stroke-width="4" stroke-miterlimit="10" stroke-linecap="round" stroke-linejoin="round"/>
<path d="M205.799 155.776L230.657 170.083L222.371 184.442L205.799 155.776Z" stroke="#6868AF" stroke-width="4" stroke-miterlimit="10" stroke-linecap="round" stroke-linejoin="round"/>
<path d="M205.799 155.776L189.279 184.442H205.799H222.371L205.799 155.776Z" fill="#6868AF" stroke="#6868AF" stroke-width="4" stroke-miterlimit="10" stroke-linecap="round" stroke-linejoin="round"/>
<path d="M212.376 88.2297L205.799 99.6343L199.222 88.2297" stroke="#6868AF" stroke-width="4" stroke-miterlimit="10" stroke-linecap="round" stroke-linejoin="round"/>
<path d="M205.799 88.2297V184.443" stroke="#6868AF" stroke-width="4" stroke-miterlimit="10" stroke-linecap="round" stroke-linejoin="round"/>
</g>
<defs>
<clipPath id="clip0">
<rect width="416" height="265" fill="white"/>
</clipPath>
</defs>
</svg>
