<?xml version="1.0" encoding="utf-8"?>
<!-- Generator: Adobe Illustrator 25.4.1, SVG Export Plug-In . SVG Version: 6.00 Build 0)  -->
<svg version="1.1" id="レイヤー_1" xmlns="http://www.w3.org/2000/svg" xmlns:xlink="http://www.w3.org/1999/xlink" x="0px"
	 y="0px" viewBox="0 0 141.7 141.7" style="enable-background:new 0 0 141.7 141.7;" xml:space="preserve">
<style type="text/css">
	.st0{fill:#60C1C9;}
	.st1{fill:none;}
	.st2{fill:#E8BE31;}
	.st3{fill:#EC734E;}
	.st4{fill:#BAC7C5;}
	.st5{fill:#27AA88;}
	.st6{fill:#AE9CC1;}
	.st7{fill:#E98C3A;}
	.st8{fill:#B4B4B5;}
	.st9{fill:#00A6CA;}
	.st10{fill:#F9C110;}
	.st11{fill:#A8C2CB;}
	.st12{fill:#FFFFFF;}
	.st13{fill:none;stroke:#BAC7C5;stroke-width:6;stroke-miterlimit:10;}
</style>
<g>
	<path class="st3" d="M70.9,34c-20.3,0-36.8,16.5-36.8,36.9s16.5,36.9,36.8,36.9c20.3,0,36.8-16.5,36.8-36.9S91.2,34,70.9,34z
		 M70.9,102.1c-17.2,0-31.2-14-31.2-31.3c0-17.2,14-31.3,31.2-31.3s31.2,14,31.2,31.3C102.1,88.1,88.1,102.1,70.9,102.1z"/>
	<rect x="68.1" y="11.3" class="st3" width="5.6" height="15.4"/>
	<rect x="68.1" y="115" class="st3" width="5.6" height="15.4"/>
	<polygon class="st3" points="41.7,37.6 30.8,26.8 26.9,30.7 37.7,41.6 	"/>
	<polygon class="st3" points="100.1,104.1 110.9,114.9 114.9,111 104,100.1 	"/>
	<rect x="11.5" y="68.1" class="st3" width="15.3" height="5.6"/>
	<rect x="115" y="68.1" class="st3" width="15.3" height="5.6"/>
	<polygon class="st3" points="26.9,111 30.8,114.9 41.7,104.1 37.7,100.1 	"/>
	<polygon class="st3" points="100.1,37.6 104,41.6 114.9,30.7 110.9,26.8 	"/>
</g>
</svg>
