<?xml version="1.0" encoding="utf-8"?>
<!-- Generator: Adobe Illustrator 25.4.1, SVG Export Plug-In . SVG Version: 6.00 Build 0)  -->
<svg version="1.1" id="レイヤー_1" xmlns="http://www.w3.org/2000/svg" xmlns:xlink="http://www.w3.org/1999/xlink" x="0px"
	 y="0px" viewBox="0 0 141.7 141.7" style="enable-background:new 0 0 141.7 141.7;" xml:space="preserve">
<style type="text/css">
	.st0{fill:#60C1C9;}
	.st1{fill:none;}
	.st2{fill:#E8BE31;}
	.st3{fill:#EC734E;}
	.st4{fill:#BAC7C5;}
	.st5{fill:#27AA88;}
	.st6{fill:#AE9CC1;}
	.st7{fill:#E98C3A;}
	.st8{fill:#B4B4B5;}
	.st9{fill:#00A6CA;}
	.st10{fill:#F9C110;}
	.st11{fill:#A8C2CB;}
	.st12{fill:#FFFFFF;}
	.st13{fill:none;stroke:#BAC7C5;stroke-width:6;stroke-miterlimit:10;}
</style>
<g>
	<path class="st0" d="M130.7,99.9c0-14.8-11.6-26.9-26.1-27.6v-5.7h-3v5.7C87,73,75.5,85.1,75.5,99.9v1.5h26.1v22.4
		c0,2.4-1.9,4.3-4.3,4.3c-1.1,0-2.2-0.5-3-1.3c-0.8-0.8-1.3-1.9-1.3-3v-2.4h-3v2.4c0,1.9,0.8,3.8,2.1,5.2c1.3,1.4,3.2,2.2,5.2,2.2
		c4,0,7.3-3.3,7.3-7.3v-22.4h26.1V99.9z M80.5,97.4c0.7-11.9,10.6-21.3,22.6-21.3s21.9,9.4,22.6,21.3H80.5z"/>
	<g>
		<path class="st3" d="M53.5,30.2c-15.1,0-27.4,12.3-27.4,27.4s12.3,27.4,27.4,27.4c15.1,0,27.4-12.3,27.4-27.4S68.6,30.2,53.5,30.2
			z M53.5,80.3C41.1,80.3,31,70.1,31,57.7c0-12.5,10.1-22.6,22.5-22.6s22.5,10.1,22.5,22.6C76.1,70.1,65.9,80.3,53.5,80.3z"/>
		<rect x="51.4" y="13.4" class="st3" width="4.2" height="11.4"/>
		<rect x="51.4" y="90.5" class="st3" width="4.2" height="11.4"/>
		<polygon class="st3" points="31.8,32.9 23.7,24.9 20.8,27.8 28.8,35.9 		"/>
		<polygon class="st3" points="75.2,82.4 83.3,90.5 86.2,87.5 78.2,79.4 		"/>
		<rect x="9.3" y="55.6" class="st3" width="11.4" height="4.2"/>
		<rect x="86.3" y="55.6" class="st3" width="11.4" height="4.2"/>
		<polygon class="st3" points="20.8,87.5 23.7,90.5 31.8,82.4 28.8,79.4 		"/>
		<polygon class="st3" points="75.2,32.9 78.2,35.9 86.2,27.8 83.3,24.9 		"/>
	</g>
</g>
</svg>
