<?xml version="1.0" encoding="utf-8"?>
<!-- Generator: Adobe Illustrator 25.4.1, SVG Export Plug-In . SVG Version: 6.00 Build 0)  -->
<svg version="1.1" id="レイヤー_1" xmlns="http://www.w3.org/2000/svg" xmlns:xlink="http://www.w3.org/1999/xlink" x="0px"
	 y="0px" viewBox="0 0 141.7 141.7" style="enable-background:new 0 0 141.7 141.7;" xml:space="preserve">
<style type="text/css">
	.st0{fill:#60C1C9;}
	.st1{fill:none;}
	.st2{fill:#E8BE31;}
	.st3{fill:#EC734E;}
	.st4{fill:#BAC7C5;}
	.st5{fill:#27AA88;}
	.st6{fill:#AE9CC1;}
	.st7{fill:#E98C3A;}
	.st8{fill:#B4B4B5;}
	.st9{fill:#00A6CA;}
	.st10{fill:#F9C110;}
	.st11{fill:#A8C2CB;}
	.st12{fill:#FFFFFF;}
	.st13{fill:none;stroke:#BAC7C5;stroke-width:6;stroke-miterlimit:10;}
</style>
<g>
	<g>
		<path class="st3" d="M55.2,35C39.1,35,26,48.1,26,64.3s13.1,29.3,29.2,29.3c16.1,0,29.2-13.1,29.2-29.3S71.3,35,55.2,35z
			 M55.2,88.4c-13.3,0-24.1-10.8-24.1-24.1c0-13.3,10.8-24.1,24.1-24.1S79.3,51,79.3,64.3C79.3,77.6,68.5,88.4,55.2,88.4z"/>
		<rect x="53" y="17" class="st3" width="4.4" height="12.2"/>
		<polygon class="st3" points="32,37.9 23.4,29.3 20.3,32.4 28.9,41.1 		"/>
		<rect x="8" y="62.1" class="st3" width="12.2" height="4.4"/>
		<rect x="90.2" y="62.1" class="st3" width="12.2" height="4.4"/>
		<polygon class="st3" points="20.3,96.2 23.4,99.3 32,90.7 28.9,87.5 		"/>
		<polygon class="st3" points="78.4,37.9 81.5,41.1 90.2,32.4 87,29.3 		"/>
	</g>
	<path class="st4" d="M117.5,88.5c-2.5-11.1-12.2-19-23.7-19c-0.6,0-1.2,0-1.8,0.1c-0.1,1.3-0.3,2.6-0.5,4.1
		c0.8-0.1,1.5-0.1,2.3-0.1c10.1,0,18.5,7.2,20.1,17.2l0.3,1.7l1.7,0c7.7,0.1,13.9,6.5,13.9,14.1c0,7.8-6.3,14.2-14.2,14.2h-46
		c-9.2,0-16.7-7.5-16.7-16.7c0-0.2,0-0.5,0-0.7c-1.5-0.1-2.8-0.2-4-0.3c0,0.4-0.1,0.7-0.1,1.1c0,11.4,9.3,20.7,20.7,20.7h46
		c10,0,18.1-8.1,18.1-18.2C133.7,97.3,126.6,89.5,117.5,88.5z"/>
</g>
</svg>
