<?xml version="1.0" encoding="utf-8"?>
<!-- Generator: Adobe Illustrator 25.4.1, SVG Export Plug-In . SVG Version: 6.00 Build 0)  -->
<svg version="1.1" id="レイヤー_1" xmlns="http://www.w3.org/2000/svg" xmlns:xlink="http://www.w3.org/1999/xlink" x="0px"
	 y="0px" viewBox="0 0 141.7 141.7" style="enable-background:new 0 0 141.7 141.7;" xml:space="preserve">
<style type="text/css">
	.st0{fill:#60C1C9;}
	.st1{fill:none;}
	.st2{fill:#E8BE31;}
	.st3{fill:#EC734E;}
	.st4{fill:#BAC7C5;}
	.st5{fill:#27AA88;}
	.st6{fill:#AE9CC1;}
	.st7{fill:#E98C3A;}
	.st8{fill:#B4B4B5;}
	.st9{fill:#00A6CA;}
	.st10{fill:#F9C110;}
	.st11{fill:#A8C2CB;}
	.st12{fill:#FFFFFF;}
	.st13{fill:none;stroke:#BAC7C5;stroke-width:6;stroke-miterlimit:10;}
</style>
<path class="st0" d="M138.4,84.5c0-14.8-11.6-26.9-26.1-27.6v-5.7h-3v5.7c-14.5,0.8-26.1,12.9-26.1,27.6V86h26.1v22.4
	c0,2.4-1.9,4.3-4.3,4.3c-1.1,0-2.2-0.5-3-1.3c-0.8-0.8-1.3-1.9-1.3-3V106h-3v2.4c0,1.9,0.8,3.8,2.1,5.2c1.3,1.4,3.2,2.2,5.2,2.2
	c4,0,7.3-3.3,7.3-7.3V86h26.1V84.5z M87.6,82.3c0.7-12.2,10.9-21.9,23.2-21.9s22.4,9.7,23.2,21.9H87.6z"/>
<path class="st4" d="M77.8,75.9H29.2c-10.7,0-19.3-8.7-19.3-19.3c0-10.6,8.7-19.3,19.3-19.3h5.7l0.6-1.4
	c3.7-8.7,12.2-14.4,21.7-14.4c11.6,0,21.4,8.3,23.2,19.8l0.3,1.9l1.9,0c6.7,0.1,12.5,4.3,14.9,10.2c1.8-0.7,5.3-1,6.4-1.2
	c-2.9-7.5-9.8-13-18-13.9c-3-13.3-14.7-22.8-28.5-22.8C46.1,15.6,35.9,22,31,32h-2.8C14.5,32,3.3,43.2,3.3,56.9
	c0,13.7,11.2,24.9,24.9,24.9h49.4C78,80.1,77.4,77.3,77.8,75.9z"/>
</svg>
