<?xml version="1.0" encoding="utf-8"?>
<!-- Generator: Adobe Illustrator 25.4.1, SVG Export Plug-In . SVG Version: 6.00 Build 0)  -->
<svg version="1.1" id="レイヤー_1" xmlns="http://www.w3.org/2000/svg" xmlns:xlink="http://www.w3.org/1999/xlink" x="0px"
	 y="0px" viewBox="0 0 141.7 141.7" style="enable-background:new 0 0 141.7 141.7;" xml:space="preserve">
<style type="text/css">
	.st0{fill:#60C1C9;}
	.st1{fill:none;}
	.st2{fill:#E8BE31;}
	.st3{fill:#EC734E;}
	.st4{fill:#BAC7C5;}
	.st5{fill:#27AA88;}
	.st6{fill:#AE9CC1;}
	.st7{fill:#E98C3A;}
	.st8{fill:#B4B4B5;}
	.st9{fill:#00A6CA;}
	.st10{fill:#F9C110;}
	.st11{fill:#A8C2CB;}
	.st12{fill:#FFFFFF;}
	.st13{fill:none;stroke:#BAC7C5;stroke-width:6;stroke-miterlimit:10;}
</style>
<g>
	<path class="st3" d="M107.1,78.9c6.3-6.2,8.6-15.3,6-23.8c-1.9-6-5.9-11-11.5-13.9c-5.6-3-11.9-3.6-18-1.7
		c-8.3,2.6-14.5,9.5-16.2,18l-5.9-1.2c2.1-10.7,9.9-19.4,20.3-22.6c7.6-2.3,15.6-1.6,22.5,2.1c7,3.7,12.1,9.9,14.4,17.5
		c3.3,10.6,0.4,22-7.5,29.8L107.1,78.9z"/>
	<polygon class="st3" points="122.6,49.1 134.1,45.5 135.8,51.3 124.4,54.8 	"/>
	<polygon class="st3" points="133,81.2 130.2,86.5 119.6,80.9 122.4,75.6 	"/>
	<polygon class="st3" points="48.1,42.9 50.9,37.6 61.5,43.3 58.7,48.6 	"/>
	<polygon class="st3" points="74.1,18.5 79.8,16.7 83.3,28.2 77.6,29.9 	"/>
	<polygon class="st3" points="104.1,30.1 109.7,19.5 115,22.3 109.3,32.9 	"/>
</g>
<g>
	<path class="st4" d="M5.9,102.6c0,12.6,10.3,22.9,22.9,22.9h58c14.4,0,26.1-11.7,26.1-26.2c0-14.4-11.7-26.2-26.1-26.2h-2.9
		c-5.1-10.5-15.8-17.3-27.6-17.3c-14.5,0-26.8,10-29.9,23.9C14.9,81.1,5.9,90.9,5.9,102.6z M10.9,102.6c0-9.7,7.9-17.7,17.6-17.8
		l2.1,0l0.3-2.1C32.9,70.1,43.6,61,56.3,61c10.4,0,19.7,6.2,23.7,15.7l0.6,1.5h6.2c11.6,0,21.1,9.5,21.1,21.1
		c0,11.6-9.5,21.1-21.1,21.1h-58C18.9,120.5,10.9,112.5,10.9,102.6z"/>
</g>
</svg>
