<?xml version="1.0" encoding="utf-8"?>
<!-- Generator: Adobe Illustrator 25.4.1, SVG Export Plug-In . SVG Version: 6.00 Build 0)  -->
<svg version="1.1" id="レイヤー_1" xmlns="http://www.w3.org/2000/svg" xmlns:xlink="http://www.w3.org/1999/xlink" x="0px"
	 y="0px" viewBox="0 0 141.7 141.7" style="enable-background:new 0 0 141.7 141.7;" xml:space="preserve">
<style type="text/css">
	.st0{fill:#60C1C9;}
	.st1{fill:none;}
	.st2{fill:#E8BE31;}
	.st3{fill:#EC734E;}
	.st4{fill:#BAC7C5;}
	.st5{fill:#27AA88;}
	.st6{fill:#AE9CC1;}
	.st7{fill:#E98C3A;}
	.st8{fill:#B4B4B5;}
	.st9{fill:#00A6CA;}
	.st10{fill:#F9C110;}
	.st11{fill:#A8C2CB;}
	.st12{fill:#FFFFFF;}
	.st13{fill:none;stroke:#BAC7C5;stroke-width:6;stroke-miterlimit:10;}
</style>
<g>
	<path class="st8" d="M121.6,40.9c-0.3-1.5-1.7-2.6-3.3-2.6h-18.2H72.8H54.6c-1.6,0-3,1-3.3,2.6c-0.3,2,1.2,3.7,3.1,3.7h18.4h27.3
		h18.4C120.4,44.6,121.9,42.9,121.6,40.9z"/>
	<path class="st8" d="M102.6,25.5c-0.3-1.5-1.7-2.6-3.3-2.6H81.2H53.9H35.7c-1.6,0-3,1-3.3,2.6c-0.3,2,1.2,3.7,3.1,3.7h18.4h27.3
		h18.4C101.5,29.2,103,27.4,102.6,25.5z"/>
	<path class="st8" d="M88.1,56.3c-0.3-1.5-1.7-2.6-3.3-2.6H66.7H39.4H21.2c-1.6,0-3,1-3.3,2.6c-0.3,2,1.2,3.7,3.1,3.7h18.4h27.3H85
		C87,60,88.5,58.3,88.1,56.3z"/>
	<path class="st8" d="M130.8,71.7c-0.3-1.5-1.7-2.6-3.3-2.6h-18.2H82H63.8c-1.6,0-3,1-3.3,2.6c-0.3,2,1.2,3.7,3.1,3.7H82h27.3h18.4
		C129.6,75.4,131.1,73.7,130.8,71.7z"/>
	<path class="st8" d="M85.6,87.1c-0.3-1.5-1.7-2.6-3.3-2.6H64.1H36.8H18.6c-1.6,0-3,1-3.3,2.6c-0.3,2,1.2,3.7,3.1,3.7h18.4h27.3
		h18.4C84.4,90.8,85.9,89.1,85.6,87.1z"/>
	<path class="st8" d="M116.1,102.5c-0.3-1.5-1.7-2.6-3.3-2.6H94.7H67.4H49.2c-1.6,0-3,1-3.3,2.6c-0.3,2,1.2,3.7,3.1,3.7h18.4h27.3
		H113C114.9,106.2,116.5,104.5,116.1,102.5z"/>
	<path class="st8" d="M104.2,117.9c-0.3-1.5-1.7-2.6-3.3-2.6H82.7H55.4H37.2c-1.6,0-3,1-3.3,2.6c-0.3,2,1.2,3.7,3.1,3.7h18.4h27.3
		h18.4C103,121.6,104.5,119.9,104.2,117.9z"/>
</g>
</svg>
