<?xml version="1.0" encoding="utf-8"?>
<!-- Generator: Adobe Illustrator 25.4.1, SVG Export Plug-In . SVG Version: 6.00 Build 0)  -->
<svg version="1.1" id="レイヤー_1" xmlns="http://www.w3.org/2000/svg" xmlns:xlink="http://www.w3.org/1999/xlink" x="0px"
	 y="0px" viewBox="0 0 141.7 141.7" style="enable-background:new 0 0 141.7 141.7;" xml:space="preserve">
<style type="text/css">
	.st0{fill:#60C1C9;}
	.st1{fill:none;}
	.st2{fill:#E8BE31;}
	.st3{fill:#EC734E;}
	.st4{fill:#BAC7C5;}
	.st5{fill:#27AA88;}
	.st6{fill:#AE9CC1;}
	.st7{fill:#E98C3A;}
	.st8{fill:#B4B4B5;}
	.st9{fill:#00A6CA;}
	.st10{fill:#F9C110;}
	.st11{fill:#A8C2CB;}
	.st12{fill:#FFFFFF;}
	.st13{fill:none;stroke:#BAC7C5;stroke-width:6;stroke-miterlimit:10;}
</style>
<g>
	<g>
		<path class="st4" d="M70.7,59.4c0.3-5.9-1-11.6-4-16.7c-4-7-10.5-12-18.3-14c-7.8-2.1-15.9-1-22.8,3c-14.4,8.3-19.3,26.8-11,41.2
			c3,5.1,7.2,9.2,12.5,11.8c-2.7,9.5-1.5,19.7,3.4,28.3c4.9,8.4,12.7,14.5,22.1,17c3.1,0.8,6.3,1.3,9.5,1.3c6.3,0,12.5-1.7,18.1-4.9
			c17.3-10,23.3-32.4,13.3-49.8C88.4,67.9,80.2,61.7,70.7,59.4z M77.5,121.7c-7.2,4.2-15.6,5.3-23.6,3.1c-8-2.1-14.7-7.3-18.8-14.5
			c-4.6-8-5.4-17.5-2.3-26.2c0.5-1.3-0.2-2.8-1.5-3.4c-5.2-2.1-9.3-5.8-12.1-10.6c-6.8-11.9-2.8-27.1,9.1-34c3.8-2.2,8-3.3,12.3-3.3
			c2.2,0,4.3,0.3,6.5,0.9c6.4,1.7,11.7,5.8,15,11.6c2.8,4.8,3.9,10.3,3.1,15.8c-0.2,1.4,0.8,2.7,2.2,3c9.1,1.6,16.9,7.1,21.5,15.1
			C97.4,94,92.3,113.1,77.5,121.7z"/>
		<path class="st4" d="M26.6,54.5c-2.3,1.3-3.1,4.2-1.7,6.5c1.3,2.3,4.2,3.1,6.5,1.8c2.3-1.3,3.1-4.2,1.7-6.5
			C31.8,53.9,28.9,53.2,26.6,54.5z"/>
		<path class="st4" d="M48.4,52.9c2.3-1.3,3.1-4.2,1.7-6.5c-1.3-2.3-4.2-3.1-6.5-1.8c-2.3,1.3-3.1,4.2-1.7,6.5
			C43.2,53.4,46.2,54.2,48.4,52.9z"/>
		<path class="st4" d="M50.2,60.2l-12.6,7.3c-1.1,0.6-1.4,2-0.8,3.1c0.4,0.7,1.2,1.1,1.9,1.1c0.4,0,0.8-0.1,1.1-0.3l12.6-7.3
			c1.1-0.6,1.4-2,0.8-3.1C52.7,59.9,51.3,59.5,50.2,60.2z"/>
	</g>
	<g>
		<ellipse transform="matrix(0.3827 -0.9239 0.9239 0.3827 16.7342 90.9058)" class="st0" cx="76.4" cy="32.9" rx="5" ry="5"/>
	</g>
	<line class="st13" x1="104" y1="8.7" x2="83.4" y2="27"/>
	<g>
		<ellipse transform="matrix(0.3827 -0.9239 0.9239 0.3827 7.1747 112.3553)" class="st0" cx="87.7" cy="50.8" rx="5" ry="5"/>
	</g>
	<line class="st13" x1="115.3" y1="26.6" x2="94.6" y2="44.9"/>
	<g>
		<ellipse transform="matrix(0.3827 -0.9239 0.9239 0.3827 3.726 135.9545)" class="st0" cx="103.6" cy="65.2" rx="5" ry="5"/>
	</g>
	<line class="st13" x1="131.2" y1="41" x2="110.6" y2="59.3"/>
</g>
</svg>
