<?xml version="1.0" encoding="utf-8"?>
<!-- Generator: Adobe Illustrator 25.4.1, SVG Export Plug-In . SVG Version: 6.00 Build 0)  -->
<svg version="1.1" id="レイヤー_1" xmlns="http://www.w3.org/2000/svg" xmlns:xlink="http://www.w3.org/1999/xlink" x="0px"
	 y="0px" viewBox="0 0 141.7 141.7" style="enable-background:new 0 0 141.7 141.7;" xml:space="preserve">
<style type="text/css">
	.st0{fill:#60C1C9;}
	.st1{fill:none;}
	.st2{fill:#E8BE31;}
	.st3{fill:#EC734E;}
	.st4{fill:#BAC7C5;}
	.st5{fill:#27AA88;}
	.st6{fill:#AE9CC1;}
	.st7{fill:#E98C3A;}
	.st8{fill:#B4B4B5;}
	.st9{fill:#00A6CA;}
	.st10{fill:#F9C110;}
	.st11{fill:#A8C2CB;}
	.st12{fill:#FFFFFF;}
	.st13{fill:none;stroke:#BAC7C5;stroke-width:6;stroke-miterlimit:10;}
</style>
<g>
	<path class="st0" d="M89.7,42.9l5.4-9.4l-5.2-3l-5.4,9.4c-11.6-5.9-24.9-7.4-37.6-3.9c-13.7,3.7-25.2,12.5-32.2,24.8l-1.5,2.6
		l43.4,25.1l-21.4,37.1c-1.1,1.9-2.8,3.2-4.9,3.8c-2.1,0.6-4.3,0.3-6.1-0.8c-1.9-1.1-3.2-2.9-3.8-5c-0.6-2.1-0.3-4.3,0.8-6.2l2.3-4
		l-5.2-3l-2.3,4c-1.9,3.3-2.4,7.1-1.4,10.7c0.9,3.6,3.3,6.7,6.6,8.6c2.2,1.3,4.6,1.9,7,1.9c1.2,0,2.4-0.2,3.7-0.5
		c3.6-1,6.7-3.3,8.5-6.6l21.4-37.1l43.4,25.1l1.5-2.6C120.7,89.4,113,58.2,89.7,42.9z M102.8,108.3L21.4,61.2
		c6.3-9.6,15.8-16.5,27-19.5c12.1-3.3,24.8-1.6,35.7,4.7C105.8,59,113.8,86.2,102.8,108.3z"/>
	<polygon class="st0" points="53.7,11.6 48.5,8.6 36.7,29.1 41.9,32.1 	"/>
	<polygon class="st0" points="72,11 66.9,8 56.1,26.7 61.3,29.7 	"/>
	<polygon class="st0" points="84.7,20.2 79.5,17.2 72.8,29 77.9,32 	"/>
	<polygon class="st0" points="111.7,35.8 106.5,32.8 99.7,44.6 104.9,47.6 	"/>
	<polygon class="st0" points="129.4,55.5 117.6,76 122.8,79 134.6,58.5 	"/>
	<polygon class="st0" points="120.8,39.3 110,58 115.2,60.9 125.9,42.3 	"/>
</g>
</svg>
