<?xml version="1.0" encoding="utf-8"?>
<!-- Generator: Adobe Illustrator 25.4.1, SVG Export Plug-In . SVG Version: 6.00 Build 0)  -->
<svg version="1.1" id="レイヤー_1" xmlns="http://www.w3.org/2000/svg" xmlns:xlink="http://www.w3.org/1999/xlink" x="0px"
	 y="0px" viewBox="0 0 141.7 141.7" style="enable-background:new 0 0 141.7 141.7;" xml:space="preserve">
<style type="text/css">
	.st0{fill:#60C1C9;}
	.st1{fill:none;}
	.st2{fill:#E8BE31;}
	.st3{fill:#EC734E;}
	.st4{fill:#BAC7C5;}
	.st5{fill:#27AA88;}
	.st6{fill:#AE9CC1;}
	.st7{fill:#E98C3A;}
	.st8{fill:#B4B4B5;}
	.st9{fill:#00A6CA;}
	.st10{fill:#F9C110;}
	.st11{fill:#A8C2CB;}
	.st12{fill:#FFFFFF;}
	.st13{fill:none;stroke:#BAC7C5;stroke-width:6;stroke-miterlimit:10;}
</style>
<g>
	<path class="st4" d="M109.4,40.6c-3.7-16.6-18.4-28.5-35.6-28.5c-14.1,0-26.8,8-32.9,20.5h-3.4c-17.2,0-31.1,14-31.1,31.1
		c0,17.2,14,31.1,31.1,31.1h69c15,0,27.2-12.2,27.2-27.3C133.7,53.7,123,42,109.4,40.6z M106.5,88.9h-69
		c-13.8,0-25.1-11.3-25.1-25.1c0-13.9,11.3-25.1,25.1-25.1h7.4l0.8-1.8c4.8-11.4,15.9-18.7,28.2-18.7c15.1,0,27.8,10.8,30.2,25.8
		l0.4,2.5l2.5,0c11.5,0.2,20.9,9.7,20.9,21.2C127.7,79.4,118.2,88.9,106.5,88.9z"/>
	<polygon class="st0" points="46.5,104.3 44.4,102.2 40.8,105.7 40.8,100.7 37.8,100.7 37.8,105.7 34.3,102.2 32.2,104.3 
		35.7,107.9 30.7,107.9 30.7,110.9 35.7,110.9 32.2,114.4 34.3,116.6 37.8,113 37.8,118 40.8,118 40.8,113 44.4,116.6 46.5,114.4 
		43,110.9 48,110.9 48,107.9 43,107.9 	"/>
	<polygon class="st0" points="71.6,124.2 69.5,122.1 66,125.7 66,120.6 63,120.6 63,125.7 59.4,122.1 57.3,124.2 60.9,127.8 
		55.8,127.8 55.8,130.8 60.9,130.8 57.3,134.4 59.4,136.5 63,132.9 63,138 66,138 66,132.9 69.5,136.5 71.6,134.4 68.1,130.8 
		73.1,130.8 73.1,127.8 68.1,127.8 	"/>
	<polygon class="st0" points="107.9,104.3 105.8,102.2 102.3,105.7 102.3,100.7 99.3,100.7 99.3,105.7 95.7,102.2 93.6,104.3 
		97.2,107.9 92.1,107.9 92.1,110.9 97.1,110.9 93.6,114.4 95.7,116.6 99.3,113 99.3,118 102.3,118 102.3,113 105.8,116.6 
		107.9,114.4 104.4,110.9 109.4,110.9 109.4,107.9 104.4,107.9 	"/>
</g>
</svg>
