<?xml version="1.0" encoding="utf-8"?>
<!-- Generator: Adobe Illustrator 25.4.1, SVG Export Plug-In . SVG Version: 6.00 Build 0)  -->
<svg version="1.1" id="レイヤー_1" xmlns="http://www.w3.org/2000/svg" xmlns:xlink="http://www.w3.org/1999/xlink" x="0px"
	 y="0px" viewBox="0 0 141.7 141.7" style="enable-background:new 0 0 141.7 141.7;" xml:space="preserve">
<style type="text/css">
	.st0{fill:#60C1C9;}
	.st1{fill:none;}
	.st2{fill:#E8BE31;}
	.st3{fill:#EC734E;}
	.st4{fill:#BAC7C5;}
	.st5{fill:#27AA88;}
	.st6{fill:#AE9CC1;}
	.st7{fill:#E98C3A;}
	.st8{fill:#B4B4B5;}
	.st9{fill:#00A6CA;}
	.st10{fill:#F9C110;}
	.st11{fill:#A8C2CB;}
	.st12{fill:#FFFFFF;}
	.st13{fill:none;stroke:#BAC7C5;stroke-width:6;stroke-miterlimit:10;}
</style>
<g>
	<g>
		<path class="st0" d="M56.7,101.6l-9,15.6c-1.2,2.1-3.2,3.7-5.6,4.3c-2.4,0.6-4.8,0.3-6.9-0.9c-2.1-1.2-3.7-3.3-4.3-5.6
			c-0.6-2.4-0.3-4.9,0.9-7l2.6-4.5l-5.9-3.4l-2.6,4.5c-2.1,3.7-2.7,8-1.6,12.1c1.1,4.1,3.8,7.6,7.5,9.8c2.5,1.4,5.2,2.2,8,2.2
			c1.4,0,2.8-0.2,4.2-0.6c4.1-1.1,7.6-3.8,9.7-7.5l8.9-15.5L56.7,101.6z"/>
		<polyline class="st0" points="108.8,25.4 114.9,14.7 109,11.3 102.9,22 		"/>
	</g>
	<path class="st0" d="M102.8,21.9l-71,66.4l51.8,31.2l25.2-94.1L102.8,21.9z M80.6,110.3L42.5,87.2l59-55.9L80.6,110.3z"/>
</g>
</svg>
