<?xml version="1.0" encoding="utf-8"?>
<!-- Generator: Adobe Illustrator 25.4.1, SVG Export Plug-In . SVG Version: 6.00 Build 0)  -->
<svg version="1.1" id="レイヤー_1" xmlns="http://www.w3.org/2000/svg" xmlns:xlink="http://www.w3.org/1999/xlink" x="0px"
	 y="0px" viewBox="0 0 141.7 141.7" style="enable-background:new 0 0 141.7 141.7;" xml:space="preserve">
<style type="text/css">
	.st0{fill:#60C1C9;}
	.st1{fill:none;}
	.st2{fill:#E8BE31;}
	.st3{fill:#EC734E;}
	.st4{fill:#BAC7C5;}
	.st5{fill:#27AA88;}
	.st6{fill:#AE9CC1;}
	.st7{fill:#E98C3A;}
	.st8{fill:#B4B4B5;}
	.st9{fill:#00A6CA;}
	.st10{fill:#F9C110;}
	.st11{fill:#A8C2CB;}
	.st12{fill:#FFFFFF;}
	.st13{fill:none;stroke:#BAC7C5;stroke-width:6;stroke-miterlimit:10;}
</style>
<rect x="88.3" y="13.2" class="st3" width="4.1" height="11.2"/>
<polygon class="st3" points="69.1,32.3 61.2,24.4 58.3,27.3 66.2,35.2 "/>
<polygon class="st3" points="111.5,80.7 119.4,88.6 122.3,85.7 114.4,77.8 "/>
<rect x="122.4" y="54.5" class="st3" width="11.1" height="4.1"/>
<polygon class="st3" points="111.5,32.3 114.4,35.2 122.3,27.3 119.4,24.4 "/>
<path class="st0" d="M94.1,80c0-20.3-15.9-36.8-35.8-37.9v-7.8h-4.2v7.8C34.1,43.2,18.3,59.8,18.3,80v2.1h35.8v30.7
	c0,3.2-2.6,5.9-5.8,5.9c-1.6,0-3.1-0.6-4.1-1.7c-1.1-1.1-1.7-2.6-1.7-4.1v-3.3h-4.2v3.3c0,2.7,1,5.2,2.9,7.1c1.8,1.9,4.4,3,7.1,3
	c5.5,0,10-4.5,10-10V82.1h35.8V80z M22.5,77.9c1.1-17.7,15.8-31.8,33.7-31.8s32.6,14.1,33.7,31.8H22.5z"/>
<path class="st3" d="M90.3,29.7c-7.9,0-14.9,3.4-19.8,8.8c1.9,0.3,2,1.4,3.9,1.9c3.8-3.3,10.6-5.9,16-5.9c12.1,0,21.9,9.9,21.9,22
	c0,7.8-4.1,14.6-10.2,18.5c0.4,1.8,0.7,3.5,1,5.1c8.3-4.5,14-13.4,14-23.6C117.1,41.7,105.1,29.7,90.3,29.7z"/>
</svg>
