<?xml version="1.0" encoding="utf-8"?>
<!-- Generator: Adobe Illustrator 25.4.1, SVG Export Plug-In . SVG Version: 6.00 Build 0)  -->
<svg version="1.1" id="レイヤー_1" xmlns="http://www.w3.org/2000/svg" xmlns:xlink="http://www.w3.org/1999/xlink" x="0px"
	 y="0px" viewBox="0 0 141.7 141.7" style="enable-background:new 0 0 141.7 141.7;" xml:space="preserve">
<style type="text/css">
	.st0{fill:#60C1C9;}
	.st1{fill:none;}
	.st2{fill:#E8BE31;}
	.st3{fill:#EC734E;}
	.st4{fill:#BAC7C5;}
	.st5{fill:#27AA88;}
	.st6{fill:#AE9CC1;}
	.st7{fill:#E98C3A;}
	.st8{fill:#B4B4B5;}
	.st9{fill:#00A6CA;}
	.st10{fill:#F9C110;}
	.st11{fill:#A8C2CB;}
	.st12{fill:#FFFFFF;}
	.st13{fill:none;stroke:#BAC7C5;stroke-width:6;stroke-miterlimit:10;}
</style>
<path class="st0" d="M91.6,77.6c0-21.5-16.9-39.1-38-40.2v-8.3h-4.4v8.3c-21.1,1.2-38,18.7-38,40.2v2.2h38v32.6
	c0,3.4-2.8,6.2-6.2,6.2c-1.7,0-3.2-0.7-4.4-1.8c-1.2-1.2-1.8-2.7-1.8-4.4v-3.5h-4.4v3.5c0,2.8,1.1,5.5,3.1,7.5c2,2,4.7,3.1,7.5,3.1
	c5.8,0,10.6-4.8,10.6-10.6V79.8h38V77.6z M15.7,75.4c1.1-18.8,16.7-33.7,35.7-33.7S86,56.6,87.1,75.4H15.7z"/>
<path class="st4" d="M120.6,43.3c-2.1-9.2-10.2-15.8-19.8-15.8c-7.8,0-14.9,4.4-18.3,11.4h-1.9c-1.1,0-2.3,0.1-3.3,0.3
	c1.4,1,2.9,2.2,4.4,3.5c0,0,0.1,0,0.1,0h3.8l0.4-1c2.5-5.9,8.3-9.7,14.7-9.7c7.9,0,14.5,5.6,15.7,13.4l0.2,1.3l1.3,0
	c6,0.1,10.9,5,10.9,11c0,6.1-5,11-11.1,11h-20c0.3,1.5,0.6,3,0.8,4.6H119c8.3,0,15.1-6.8,15.1-15.1
	C134.1,50.6,128.2,44.1,120.6,43.3z"/>
</svg>
