<?xml version="1.0" encoding="utf-8"?>
<!-- Generator: Adobe Illustrator 25.4.1, SVG Export Plug-In . SVG Version: 6.00 Build 0)  -->
<svg version="1.1" id="レイヤー_1" xmlns="http://www.w3.org/2000/svg" xmlns:xlink="http://www.w3.org/1999/xlink" x="0px"
	 y="0px" viewBox="0 0 141.7 141.7" style="enable-background:new 0 0 141.7 141.7;" xml:space="preserve">
<style type="text/css">
	.st0{fill:#60C1C9;}
	.st1{fill:none;}
	.st2{fill:#E8BE31;}
	.st3{fill:#EC734E;}
	.st4{fill:#BAC7C5;}
	.st5{fill:#27AA88;}
	.st6{fill:#AE9CC1;}
	.st7{fill:#E98C3A;}
	.st8{fill:#B4B4B5;}
	.st9{fill:#00A6CA;}
	.st10{fill:#F9C110;}
	.st11{fill:#A8C2CB;}
	.st12{fill:#FFFFFF;}
	.st13{fill:none;stroke:#BAC7C5;stroke-width:6;stroke-miterlimit:10;}
</style>
<g>
	<path class="st4" d="M102.5,36.8c0-1.7-1.4-3.1-3.1-3.1c-1.7,0-3.1,1.4-3.1,3.1c0,1.7,1.4,3.1,3.1,3.1
		C101.1,40,102.5,38.6,102.5,36.8z"/>
	<path class="st4" d="M112.3,33.7c-1.7,0-3.1,1.4-3.1,3.1c0,1.7,1.4,3.1,3.1,3.1c1.7,0,3.1-1.4,3.1-3.1
		C115.5,35.1,114.1,33.7,112.3,33.7z"/>
	<path class="st4" d="M111,44.8h-9.5c-0.8,0-1.4,0.6-1.4,1.4c0,0.8,0.6,1.4,1.4,1.4h9.5c0.8,0,1.4-0.6,1.4-1.4
		C112.4,45.4,111.8,44.8,111,44.8z"/>
	<path class="st0" d="M90.1,79.2c0-21.5-16.9-39.1-38-40.2v-8.3h-4.4V39c-21.1,1.2-38,18.7-38,40.2v2.2h38V114
		c0,3.4-2.8,6.2-6.2,6.2c-1.7,0-3.2-0.7-4.4-1.8c-1.2-1.2-1.8-2.7-1.8-4.4v-3.5h-4.4v3.5c0,2.8,1.1,5.5,3.1,7.5c2,2,4.7,3.1,7.5,3.1
		c5.8,0,10.6-4.8,10.6-10.6V81.4h38V79.2z M14.2,77c1.1-18.8,16.7-33.7,35.7-33.7S84.4,58.2,85.6,77H14.2z"/>
	<path class="st4" d="M124.8,50.2c2.4-3.6,3.6-7.9,3.6-12.3c0-12.3-10-22.4-22.2-22.4C94,15.6,84,25.6,84,37.9
		c0,4.4,1.3,8.6,3.6,12.3c-0.8,0.8-1.6,1.7-2.3,2.5c0.8,1,1.6,2,2.4,3.2c1.1-1.5,2.3-2.8,3.7-4c0.8-0.7,0.9-1.8,0.3-2.6
		c-2.5-3.3-3.9-7.2-3.9-11.4c0-10.2,8.3-18.5,18.4-18.5c10.2,0,18.4,8.3,18.4,18.5c0,4.2-1.3,8.1-3.9,11.4c-0.6,0.8-0.5,2,0.3,2.6
		c5.2,4.4,8.2,10.9,8.2,17.8c0,12.8-10.3,23.2-23.1,23.2c-6.7,0-12.8-2.9-17-7.6l-4.7,0.2c4.9,6.8,12.8,11.2,21.8,11.2
		c14.8,0,26.9-12.1,26.9-27C133.1,62.3,130.1,55.3,124.8,50.2z"/>
</g>
</svg>
