<?xml version="1.0" encoding="utf-8"?>
<!-- Generator: Adobe Illustrator 25.4.1, SVG Export Plug-In . SVG Version: 6.00 Build 0)  -->
<svg version="1.1" id="レイヤー_1" xmlns="http://www.w3.org/2000/svg" xmlns:xlink="http://www.w3.org/1999/xlink" x="0px"
	 y="0px" viewBox="0 0 141.7 141.7" style="enable-background:new 0 0 141.7 141.7;" xml:space="preserve">
<style type="text/css">
	.st0{fill:#60C1C9;}
	.st1{fill:none;}
	.st2{fill:#E8BE31;}
	.st3{fill:#EC734E;}
	.st4{fill:#BAC7C5;}
	.st5{fill:#27AA88;}
	.st6{fill:#AE9CC1;}
	.st7{fill:#E98C3A;}
	.st8{fill:#B4B4B5;}
	.st9{fill:#00A6CA;}
	.st10{fill:#F9C110;}
	.st11{fill:#A8C2CB;}
	.st12{fill:#FFFFFF;}
	.st13{fill:none;stroke:#BAC7C5;stroke-width:6;stroke-miterlimit:10;}
</style>
<path class="st0" d="M125.5,73c0-29.2-22.9-53.1-51.6-54.6V7h-6v11.3C39.1,19.9,16.3,43.8,16.3,73v3h51.6v44.3
	c0,4.7-3.8,8.5-8.4,8.5c-2.2,0-4.4-0.9-6-2.5c-1.6-1.6-2.5-3.7-2.5-6v-4.7h-6v4.7c0,3.8,1.5,7.5,4.2,10.2c2.7,2.7,6.4,4.3,10.2,4.3
	c7.9,0,14.4-6.5,14.4-14.5V76h51.6V73z M22.3,70c1.6-25.5,22.7-45.8,48.5-45.8s47,20.3,48.5,45.8H22.3z"/>
</svg>
