<?xml version="1.0" encoding="utf-8"?>
<!-- Generator: Adobe Illustrator 25.4.1, SVG Export Plug-In . SVG Version: 6.00 Build 0)  -->
<svg version="1.1" id="レイヤー_1" xmlns="http://www.w3.org/2000/svg" xmlns:xlink="http://www.w3.org/1999/xlink" x="0px"
	 y="0px" viewBox="0 0 141.7 141.7" style="enable-background:new 0 0 141.7 141.7;" xml:space="preserve">
<style type="text/css">
	.st0{fill:#60C1C9;}
	.st1{fill:none;}
	.st2{fill:#E8BE31;}
	.st3{fill:#EC734E;}
	.st4{fill:#BAC7C5;}
	.st5{fill:#27AA88;}
	.st6{fill:#AE9CC1;}
	.st7{fill:#E98C3A;}
	.st8{fill:#B4B4B5;}
	.st9{fill:#00A6CA;}
	.st10{fill:#F9C110;}
	.st11{fill:#A8C2CB;}
	.st12{fill:#FFFFFF;}
	.st13{fill:none;stroke:#BAC7C5;stroke-width:6;stroke-miterlimit:10;}
</style>
<path class="st4" d="M123.1,76.8l-16.7,11.4l-16.9-9.8c1-2.3,1.5-4.9,1.5-7.6c0-2.7-0.5-5.3-1.5-7.6l16.9-9.8l16.7,11.4l3.2-4.6
	l-14.4-9.9l11.9-6.9l-2.8-4.9L109,45.5l-1.3-17.5l-5.6,0.4l1.5,20.1l-16.9,9.8c-3.2-4-7.8-6.9-13.1-7.6V31.3l18.2-8.8l-2.4-5.1
	l-15.7,7.6V11.3h-5.6v13.8l-15.7-7.6l-2.4,5.1l18.2,8.8v19.5c-5.3,0.7-10,3.5-13.1,7.6l-16.9-9.8l1.5-20.1L34,28.1l-1.3,17.5
	l-11.9-6.9L18,43.5l11.9,6.9l-14.4,9.9l3.2,4.6l16.7-11.4l16.9,9.8c-1,2.4-1.5,4.9-1.5,7.6c0,2.7,0.5,5.3,1.5,7.6l-16.9,9.8
	L18.6,76.8l-3.2,4.6l14.4,9.9L18,98.2l2.8,4.9l11.9-6.9l1.3,17.5l5.6-0.4l-1.5-20.1l16.9-9.8c3.2,4,7.8,6.9,13.1,7.6v19.5l-18.2,8.8
	l2.4,5.1l15.7-7.6v13.8h5.6v-13.8l15.7,7.6l2.4-5.1l-18.2-8.8V90.9c5.3-0.7,10-3.5,13.1-7.6l16.9,9.8l-1.5,20.1l5.6,0.4l1.3-17.5
	l11.9,6.9l2.8-4.9l-11.9-6.9l14.4-9.9L123.1,76.8z M70.9,85.5c-8.1,0-14.6-6.6-14.6-14.7c0-8.1,6.6-14.7,14.6-14.7
	s14.6,6.6,14.6,14.7C85.5,78.9,78.9,85.5,70.9,85.5z"/>
</svg>
