<?xml version="1.0" encoding="utf-8"?>
<!-- Generator: Adobe Illustrator 25.4.1, SVG Export Plug-In . SVG Version: 6.00 Build 0)  -->
<svg version="1.1" id="レイヤー_1" xmlns="http://www.w3.org/2000/svg" xmlns:xlink="http://www.w3.org/1999/xlink" x="0px"
	 y="0px" viewBox="0 0 141.7 141.7" style="enable-background:new 0 0 141.7 141.7;" xml:space="preserve">
<style type="text/css">
	.st0{fill:#60C1C9;}
	.st1{fill:none;}
	.st2{fill:#E8BE31;}
	.st3{fill:#EC734E;}
	.st4{fill:#BAC7C5;}
	.st5{fill:#27AA88;}
	.st6{fill:#AE9CC1;}
	.st7{fill:#E98C3A;}
	.st8{fill:#B4B4B5;}
	.st9{fill:#00A6CA;}
	.st10{fill:#F9C110;}
	.st11{fill:#A8C2CB;}
	.st12{fill:#FFFFFF;}
	.st13{fill:none;stroke:#BAC7C5;stroke-width:6;stroke-miterlimit:10;}
</style>
<g>
	<path class="st4" d="M103.4,39.8C100.1,25.3,87.3,15,72.3,15c-12.3,0-23.4,7-28.7,17.9h-2.9c-15,0-27.2,12.2-27.2,27.3
		s12.2,27.3,27.2,27.3h18.6V82H40.6c-12,0-21.8-9.8-21.8-21.8c0-12,9.8-21.8,21.8-21.8h6.5l0.7-1.7c4.2-9.9,13.8-16.2,24.4-16.2
		c13.1,0,24.1,9.4,26.2,22.4l0.4,2.3l2.3,0c10,0.2,18.1,8.4,18.1,18.4c0,10.2-8.2,18.4-18.4,18.4H85.4v5.5h15.4
		c13.1,0,23.8-10.7,23.8-23.9C124.6,51.4,115.3,41.2,103.4,39.8z"/>
	<polygon class="st2" points="77.8,71.1 50.9,107.4 66.5,107.4 63.5,134.1 90.3,97.8 74.7,97.8 	"/>
</g>
</svg>
