<?xml version="1.0" encoding="utf-8"?>
<!-- Generator: Adobe Illustrator 25.4.1, SVG Export Plug-In . SVG Version: 6.00 Build 0)  -->
<svg version="1.1" id="レイヤー_1" xmlns="http://www.w3.org/2000/svg" xmlns:xlink="http://www.w3.org/1999/xlink" x="0px"
	 y="0px" viewBox="0 0 141.7 141.7" style="enable-background:new 0 0 141.7 141.7;" xml:space="preserve">
<style type="text/css">
	.st0{fill:#60C1C9;}
	.st1{fill:none;}
	.st2{fill:#E8BE31;}
	.st3{fill:#EC734E;}
	.st4{fill:#BAC7C5;}
	.st5{fill:#27AA88;}
	.st6{fill:#AE9CC1;}
	.st7{fill:#E98C3A;}
	.st8{fill:#B4B4B5;}
	.st9{fill:#00A6CA;}
	.st10{fill:#F9C110;}
	.st11{fill:#A8C2CB;}
	.st12{fill:#FFFFFF;}
	.st13{fill:none;stroke:#BAC7C5;stroke-width:6;stroke-miterlimit:10;}
</style>
<path class="st0" d="M117.6,79.5c0-25.4-19.8-46.2-44.7-47.5v-9.8h-5.2V32C42.8,33.3,23,54.1,23,79.5v2.6h44.7v38.5
	c0,4.1-3.3,7.4-7.3,7.4c-1.9,0-3.8-0.8-5.2-2.2c-1.4-1.4-2.1-3.2-2.1-5.2v-4.1h-5.2v4.1c0,3.3,1.3,6.5,3.6,8.9
	c2.3,2.4,5.5,3.7,8.9,3.7c6.9,0,12.5-5.6,12.5-12.6V82.1h44.7V79.5z M28.3,76.9C29.6,54.7,47.9,37,70.3,37s40.7,17.6,42,39.8H28.3z"
	/>
<polygon class="st2" points="104.6,6.5 77.8,42.7 93.4,42.7 90.4,69.4 117.2,33.1 101.6,33.1 "/>
</svg>
